<?xml version="1.0" encoding="UTF-8"?>
<svg id="Layer_2" xmlns="http://www.w3.org/2000/svg" viewBox="0 0 1040.22 419.41">
  <defs>
    <style>
      .cls-1, .cls-2 {
        fill: #ffe07d;
      }

      .cls-2 {
        font-family: Helvetica, Helvetica;
        font-size: 161.34px;
      }

      .cls-3 {
        fill: #fff;
      }

      .cls-4 {
        fill: #4d4d4d;
      }
    </style>
  </defs>
  <g id="_Слой_1" data-name="Слой_1">
    <g>
      <g>
        <path class="cls-4" d="M661.4,150.18c.85-.47,1.71-.95,2.63-1.46.32-2.94,1.35-4.18,3.5-4.1,2.06.07,3.02,1.32,3.17,4.06.91.52,1.8,1.02,2.53,1.44,0,2.12-3.62,1.2-2.52,3.9h21.41c0-.73,0-1.49,0-2.25-.03-20.01-.05-40.03-.08-60.04,0-.27,0-.53,0-.8,0-1.55-.07-3.48,2-3.43,2.03.05,1.92,2,1.92,3.53.02,20.15.04,40.29.06,60.44,0,.79,0,1.58,0,2.52h59.88c-.52-.83-.84-1.51-1.32-2.05-.49-.56-1.13-.98-1.7-1.46.59-.47,1.17-.97,1.78-1.41.2-.14.49-.16.72-.23-.02-2.79,1.11-4.22,3.28-4.22,2.21,0,3.26,1.28,3.38,4.2.34.14.75.22,1.05.45.49.37.91.83,1.36,1.26-.45.43-.84,1.04-1.38,1.24-1.14.43-1.65,1.01-1.05,2.29h31.84c0-.76,0-1.52,0-2.28-.01-12.52-.07-25.05.02-37.57.01-1.91-.36-3.49-1.86-5.37v4.18c-1.75.33-3.22.62-4.13.79-.62,1.14-.85,2.27-1.46,2.53-1.07.46-1.54-.42-1.79-1.49-.09-.37-.95-.55-1.83-1.02.75-.38,1.26-.64,2-1.01-.44-.98-.89-2-1.31-2.92.37-.96.78-2.03,1.23-3.2-.59-.28-1.05-.49-1.5-.73-1.11-.6-1.78-1.22-.89-2.64,1.03-1.65.56-3.9-.46-4.64.15-.74.51-1.4.37-1.93-.71-2.68-.32-5.66-2.48-7.97-.73-.79-.73-2.28-.98-3.47-.04-.2.28-.62.52-.71.92-.32,1.87-.59,2.82-.79,1.18-.24,2.26-.44,1.72-2.1-.08-.24.27-.83.55-.94,1.31-.54,1.05-1.44.76-2.45-.1-.36.1-.81.2-1.21,0-.04.51-.01.53.04.09.4.06.84.17,1.23.23.77.54,1.53.81,2.29.25.7.48,1.4.85,2.47.97.09,2.07,1.73,3.77.67.2.37.63.78.57,1.11-.76,4.06-1.61,8.1-2.39,12.16-.08.4.16.85.25,1.28-.31,1.52-1.18,3.19-.81,4.51.62,2.24.06,3.32-2.05,3.79.19.79.34,1.41.46,1.93,4.6.48,2.16-3.14,3.02-4.95,1.01-.16,2.06-.26,3.08-.51.36-.09.78-.45.91-.79.09-.24-.17-.75-.42-.97-.89-.81-1.85-1.55-2.78-2.32-.05-.59-.12-1.18-.15-1.76-.12-2,.48-3.7,2.29-4.73,1.47-.84,2.94-.64,4.26.43,1.47,1.19,2.22,3.6,1.43,5.41-.45,1.03-1.4,1.84-2.14,2.73-.33.4-.7.76-1.05,1.14.1.13.21.25.31.38,1.28-.17,2.56-.34,4.08-.55.09,1.47.17,2.82.25,4.16q2.19.26,2.64-2.85c-.09-.09-.18-.17-.27-.27-.66-.72-1.87-1.45-1.86-2.15.03-1.34,1.47-1.51,2.58-1.48,1.42.05,2.83.32,4.43.52,0-.02.12-.4.25-.81.49,2.2.34,3.99-2.66,4.23.43,1.07.78,1.95,1.18,2.95-1.2,1.5-1.11,2.25.8,3.72-.62.3-1.16.57-1.71.84.15.11.3.22.44.33-.49.72-.99,1.44-1.48,2.15-.62-.56-1.24-1.12-1.86-1.68.12-.18.24-.35.35-.53-1.28.16-2.57.32-3.92.49-.18-1.31-.34-2.48-.51-3.64-.19,0-.38-.01-.57-.02-.48,2.1-1.78,3.78-1.73,6.25.24,12.46.16,24.92.2,37.38,0,.72,0,1.45,0,2.31h49.39c-.29-.72-.42-1.44-.83-1.92-.55-.65-1.31-1.12-1.98-1.67.73-.59,1.47-1.18,2.38-1.91.22-2.69,1.44-4.07,3.7-3.88,2.09.18,3.05,1.53,2.91,4.11.16.08.35.15.51.26.69.46,1.37.93,2.05,1.4-.6.53-1.33.97-1.77,1.61-.55.8-.86,1.77-1.02,2.82,7.59-3.03,14.9-6.26,20.3-12.48,1.5-1.73,2.74-3.73,3.92-5.71,1.57-2.64,1.1-5.28-1.42-7-2.94-2-5.91-4.08-9.48-4.2-.47-3.35-.57-6.7-1.51-9.81-.66-2.18-.98-4.2-.66-6.38.11-.78.31-1.56.57-2.31.58-1.64,1.56-2.58,3.52-2.52,10.06.28,20.12.51,30.19.64,4.37.06,8.74-.2,13.11-.28,7.04-.13,14.04,0,20.82,2.32,1.59.54,3.52-.53,4.39-2.18.88-1.66.67-3.1-.7-4.49-4.02-4.08-6.84-8.87-8.1-14.49-.47-2.09-.8-4.27,1.99-5.62-2.5-.62-4.65-1.23-6.82-1.69-5.92-1.26-10.68-4.44-14.8-8.75-1.78-1.87-2.44-1.87-4.2-.04-1.52,1.58-2.91,3.2-3.14,5.58-.14,1.48-.84,2.4-2.72,1.66-1.38-.54-2.96-.58-4.46-.81-.65-.1-1.43.09-1.95-.2-.96-.54-1.77-1.35-2.64-2.05.91-.32,1.81-.86,2.74-.93,4.82-.38,8.24-2.73,9.44-6.83-3.09.08-5.55-1.31-7.98-3.01-1.25-.88-2.94-1.11-4.38-1.73-1.99-.85-3.94-1.8-5.95-2.72-2.71,3.27-.4,7.85-2.6,11.27,3.81,1.25,5.47,4.84,3.72,8.83-1.88-1.08-3.78-2.09-5.58-3.26-.47-.31-.67-1.08-.92-1.67-.57-1.4-1.3-2.78-1.58-4.24-.25-1.27-.22-2.7.13-3.94.73-2.63,1.74-5.18,2.76-8.12-6.03.68-7.93,5.93-11.75,8.78.34,1.08,2.41,1.86,1.75,3.82-.54,1.6-1.12,3.18-1.86,5.3-2.13-2.83-4.44-4.31-4.1-8.25.33-3.87,1.49-5.98,4.75-7.81,2.24-1.26,3.93-3.5,5.83-5.35,1.55-1.51,3.26-2.44,5.51-2.17.44.05,1.08-.08,1.34-.38,1.06-1.22,2.3-1.25,3.79-1.04,2.21.3,4.45.32,6.73.47.74-4.49,2.49-8.18,4.85-11.67.89-1.32.99-3.15,1.73-4.6,1.64-3.22,3.46-6.36,5.21-9.52.51-.92,1.06-1.81,1.6-2.73-2.35-1.68-4.84-1.51-7.32-1.12-.52.08-1.03.53-1.43.93-1.84,1.83-4.86,1.18-5.57-1.23-2.77-.01-2.97-.23-2.88-3.1.12-3.95.15-3.84,4.01-5.05,1.74-.54,3.37-1.51,4.95-2.45,2.19-1.3,4.29-2.75,6.45-4.11.26-.17.63-.18.95-.23q3.59-.57,3.96-4.15c.04-.36.09-.73.21-1.71,1.23,1.97,2.16,3.45,2.96,4.73,1.94.27,3.79.53,5.64.77,1.36.18,2.43.61,3.25,1.9.41.65,1.65.74,2.41,1.23,1.03.66,1.98,1.47,2.96,2.21-.11.2-.22.4-.33.59-.54-.03-1.08-.06-1.46-.08,1.71,3.48,5.41,6.03,5.57,10.77-.75-.29-1.21-.46-1.79-.68-.22,1.32.52,2.74-1.25,3.59-.54.26-.27,2.23-.37,3.49.74-.13,1.69-.3,2.66-.47.36-1.41.61-2.82,1.08-4.17,1.42-4.15,4.83-6.51,8.21-8.87,2-1.39,2.03-1.61.42-3.29-.33-.35-.55-1.05-.46-1.52.65-3.21.98-6.57,3.85-8.84.3-.23.31-.83.59-1.64,1.47.77,2.92,1.38,4.2,2.25,1.75,1.18,2.7,2.93,2.61,5.07-.07,1.64-.16,3.31-.56,4.89-.3,1.21-.81,2.69-2.86,2.01,2.47,1.29,3.39,3.38,3.63,5.83.53,5.46,1.11,10.92,1.46,16.4.08,1.19-.71,2.44-1.09,3.66-.13.41-.43.87-.33,1.22,1.07,3.66,2.05,7.37,3.42,10.92.42,1.08,1.85,1.99,3.02,2.51,2.99,1.33,5.15,3.47,6.73,6.23,1.84,3.21,3.55,6.49,5.37,9.71.23.4.72.75,1.17.91,3.27,1.15,5.37,3.47,6.82,6.53,1.78,3.75,4.01,7.34,5.32,11.25,1.39,4.17,1.85,8.65,2.87,12.95.54,2.24,1.24,4.49,2.22,6.57.77,1.63,1.95,3.12,3.17,4.48,2.82,3.13,5.78,6.15,8.72,9.25-.95,1.83-2.6,1.24-4.24.66-.03.17-.06.34-.09.52.49.36,1.03.67,1.46,1.09.31.31.75.91.63,1.14-.45.91-.91,2.22-1.69,2.5-2.53.91-5.2,1.43-7.88,2.12,2.23,2.65,5.05,5.28,8.43,7.35,1.02.63,2.02,1.5,2.68,2.49,7.21,10.88,14.07,21.97,19.41,33.92,1.44,3.24,2.52,6.64,3.76,9.97v2.78c-.6.02-1.19.06-1.79.07-16.3.09-32.59.19-48.89.26-39.28.15-78.56.29-117.84.38-.92,0-1.93-.47-2.74-.98-.95-.59-1.64-1.61-2.6-2.18-1.17-.68-2.5-1.09-3.9-1.67-3.12,2.24-4.28,2.24-7.5-.14-3.43,2.37-4.42,2.37-7.86-.1-2.54,2.59-5.19,2.38-7.37.32-1.69.6-3.03,1.46-4.35,1.43-1.31-.03-2.6-.96-3.99-1.53-2.92,2.24-3.64,2.23-7.41.02-2.91.72-3.07,2.82-2.83,5.12.02.2-.01.4-.02.6h-9.94c.08-2.46.31-4.99-2.97-5.78-3.09,2.3-4.25,2.3-7.64-.08-3.41,2.38-4.24,2.39-7.83-.04-1.7,1.56-3.58,2.45-5.89,1.25-2.01-1.04-3.24-.63-4.39,1.45-.78,1.43-2.71,2.17-4.1,1.28-.95-.61-1.58-1.73-2.05-2.28-2.02-.65-3.77-1.22-5.8-1.88-3.1,2.05-4.06,2.06-7.41-.24-3.41,2.3-4.43,2.29-7.8-.04-3.24,2.34-4.3,2.34-7.8.04-3.18,2.3-4.08,2.3-7.88-.07-2.5,2.59-5.1,2.18-7.65-.06-2.65,2.6-5.25,2.25-7.54.22-1.58.74-2.92,1.37-4.35,2.04-.05.88-.1,1.85-.15,2.92h-13.21c-.07-1.23-.13-2.32-.17-2.95-2.11-.65-3.92-1.22-5.2-1.62-2.05.39-3.93,1.29-5.45.88-1.64-.45-2.94-2.13-4.43-3.3,0,.51,0,1.14,0,1.78,0,.66.03,1.33-.01,1.99-.12,1.67-1.29,2.8-2.96,2.88-2.08.11-3.31-1.25-3.31-3.74-.02-9.21-.12-18.42.04-27.63.04-2.45-.34-4.17-2.9-4.82v-.8ZM965.58,81.52c-2.24,4.74-6.08,6.76-10.87,7.57,1.38,3.22,2.67,6.11,5.71,7.89,2.06,1.2,2.19,2.77.62,4.6-1.12,1.31-2.41,2.47-3.46,3.83-1.81,2.31-3.49,4.72-5.29,7.18,9.65,3.41,19.96,4.41,27.68,11.69-.77-2.44-1.66-4.71-2.57-6.97-2.78-6.88-5.31-13.87-5.88-21.3-.38-4.9-3.67-8.52-4.81-13.02-.11-.45-.62-.81-1.14-1.46ZM703.5,163.04c2.45-2.45,5.1-2.26,7.27-.21,1.7-.59,3.04-1.44,4.36-1.4,1.31.03,2.6.95,4.01,1.53,2.44-2.4,5.03-2.12,7.47.2,3.19-2.44,4.26-2.44,7.88-.09,2.97-2.33,3.86-2.33,7.77-.03,3.09-2.31,3.99-2.31,7.28-.29,2.16-.66,3.96-1.22,5.91-1.82v-5.1c-.97,0-1.81,0-2.66,0-10.4,0-20.79,0-31.19,0-8.01,0-16.03,0-24.04.03-.51,0-1.01.34-1.52.52.34.39.68.77,1.02,1.16.99,1.1,1.98,2.2,2.96,3.31-.1.07-.19.14-.29.21,1.21.64,2.42,1.28,3.76,1.98ZM846.07,155.97h-49.06v5.48c2.17.6,4.11,1.14,6.41,1.77,2.94-2.05,4.04-2.04,7.35.44,2.55-2.63,5.2-2.35,7.38-.33,1.69-.6,3.03-1.46,4.35-1.43,1.32.03,2.61.97,3.99,1.54,2.9-2.26,3.75-2.25,7.63.13,2.94-2.37,4.01-2.38,7.52-.15,1.53-.71,2.93-1.37,4.44-2.07v-5.38ZM793.8,155.99h-31.82q-.62,4.56,3.27,6.77c2.46-1.79,4.66-.87,6.65.89,3.15-2.44,3.93-2.44,7.86-.07,3.02-2.39,4.05-2.39,7.8.04,1.75-1.81,3.83-2.33,6.25-1.15v-6.46ZM942.5,93.16c-.28,3.72.66,6.53,2.47,9.08,2.06,2.9,1.57,4.35-1.75,5.68-.95.38-1.88.78-3.13,1.29,7.03,2.39,8.45,1.82,11.63-4.35.09-.18.17-.36.26-.53,1.63-3.25.65-5.83-2.68-7.44-1.42-.68-2.69-1.64-4.07-2.42-.88-.49-1.82-.88-2.73-1.31ZM685.61,160.92c.17-2.67.35-2.85,3.38-3.14.59-.06,1.22-.01,1.75-.23.52-.22.92-.7,1.38-1.07-.54-.21-1.07-.61-1.61-.62-5.16-.05-10.32-.03-15.48-.03-1.43,0-2.87,0-4.49,0v9.74c3.83-4.95,5.5-5.34,9.11-2.8,2.09-.65,3.9-1.22,5.97-1.86ZM678.69,180.28c-1.92-4.45-2.19-8.9-.63-13.41.67-1.96-.08-3.1-2.13-2.72-1.06.2-2.24.92-2.93,1.76-2.81,3.37-2.71,10.42.04,13.8,1.57,1.94,3.39,2.16,5.66.57ZM809.51,181.17c-2.41-5.52-2.32-10.51-.18-15.53-.44-.3-.82-.77-1.19-.76-1.12.03-2.26.15-3.31.48-.16.05-.02,1.48.21,2.21,1.22,3.98,1.29,7.97-.24,11.84-.69,1.73.14,2.29,1.39,2.42,1,.1,2.06-.38,3.32-.66ZM735.75,180.3c2.25,1.55,3.4,1.48,4.97-.15-1.88-4.6-2.16-9.24-.28-13.88.47-1.15-.02-1.65-.88-1.96-1.41-.51-2.7-.27-3.79.93,2.21,5.02,2.18,10.01-.02,15.06ZM778.32,165.65c-.5-.32-.88-.79-1.25-.78-1.12.03-2.25.17-3.31.5-.14.05.02,1.47.24,2.2,1.2,3.92,1.18,7.81-.14,11.68-.59,1.74.03,2.78,1.87,2.65.89-.06,1.74-.61,2.63-.95-2.25-5.27-2.27-10.2-.05-15.31ZM827.61,165.8c2.25,5.1,2.05,10.1.01,15.02,2.26,1.57,3.23,1.51,4.94-.18-2.15-4.98-2.09-9.98.02-14.91-2.09-1.66-2.98-1.65-4.97.07ZM717.45,165.13c-1.29-1.12-2.64-1.44-4.06-.6-.37.22-.77,1.02-.64,1.34,1.95,4.85,1.7,9.65-.24,14.38,1.91,1.58,3.04,1.57,4.86.02-2.06-6.72-2.06-8.99.08-15.14ZM825.03,181.13c-2.42-5.46-2.31-10.51-.16-15.55-.53-.32-.93-.75-1.32-.74-1.06.02-2.16.11-3.13.47-.21.08-.09,1.48.13,2.19,1.25,3.98,1.24,7.92-.15,11.85-.58,1.63-.11,2.51,1.63,2.54.91.02,1.83-.44,3.01-.76ZM720.24,165.22c2.19,4.98,2.19,10.04.02,15.01,1.96,1.59,3.1,1.58,4.97-.03-2.13-4.94-2.09-9.94-.03-14.9-1.78-1.64-2.88-1.67-4.96-.09ZM840.6,181.18c-2.45-5.51-2.37-10.5-.2-15.52-.45-.31-.82-.78-1.19-.77-1.12.02-2.26.12-3.31.45-.16.05-.03,1.5.19,2.23,1.25,3.98,1.31,7.95-.24,11.82-.68,1.7.1,2.31,1.38,2.44,1,.1,2.06-.37,3.36-.64ZM733.02,165.2c-.3-.25-.54-.62-.8-.63-1.18-.04-2.37.03-3.56.05.04.87.06,1.75.14,2.62.03.39.19.76.29,1.15.98,4.1.55,8.08-1.07,11.89,2.12,1.56,3.24,1.51,4.95-.15-2.18-4.94-2.11-9.94.04-14.94ZM811.88,165.29c2.41,5.5,2.35,10.49.18,15.5.46.32.83.8,1.2.79,1.12-.02,2.26-.14,3.32-.46.15-.04.02-1.49-.21-2.21-1.29-3.98-1.33-7.97.23-11.83.76-1.88-.22-2.34-1.54-2.46-.95-.09-1.95.39-3.18.67ZM781.01,180.81c.45.31.82.77,1.18.77,1.12-.02,2.26-.12,3.31-.44.15-.05.04-1.49-.19-2.21-1.28-3.98-1.35-7.97.23-11.82.77-1.89-.26-2.36-1.53-2.49-.97-.09-2,.45-3.15.75,2.38,5.41,2.32,10.4.15,15.43ZM704.67,165.16c2.31,5.13,2.16,10.19.07,15.14,2.17,1.55,3.34,1.48,4.93-.17-2.16-4.98-2.03-9.98.04-14.97-1.67-1.48-3.24-1.41-5.04,0ZM748.59,164.9c-.87-.29-1.63-.72-2.43-.79-2-.19-2.66.79-2.05,2.65.37,1.12.62,2.28.83,3.45.62,3.53-.06,6.91-1.4,10.11,2.23,1.54,3.38,1.46,4.91-.2-2.09-5.78-2.09-8.74.15-15.21ZM751.31,180.24c1.01,1.17,2.41,1.64,3.53.85.6-.42.6-1.94.57-2.95-.09-2.69-.45-5.38-.5-8.07-.02-1.29.46-2.59.66-3.9.28-1.77-.72-2.29-2.22-2.03-.73.13-1.4.58-2.14.9,2.28,5.2,2.26,10.2.1,15.21ZM681.4,164.93c2.14,6.31,2.13,9.58-.11,15.92,1.35.13,2.74.63,3.71.2.55-.25.56-2.03.55-3.12-.02-3.07-.22-6.14-.26-9.21-.01-.91.25-1.82.38-2.73.23-1.57-.67-2.05-2-1.86-.74.11-1.44.5-2.28.81ZM764.58,179.61c2.84-3.57,2.97-10.08.32-13.08-2.7,3.16-2.89,9.11-.32,13.08ZM843.52,165.29c.46,3.06,1.15,5.58,1.13,8.1-.02,2.51-.74,5.02-1.2,7.8.64.24,1.51.56,2.55.94v-17.88c-1.14.48-2,.84-2.48,1.04ZM792.19,96.86c.03,2,1.5,3.65,3.21,3.57,1.62-.07,3.02-1.73,3.03-3.58,0-2-1.39-3.6-3.16-3.61-1.79-.01-3.11,1.53-3.08,3.62ZM766.71,164.37c2.37,8.91,2.36,9.43-.55,17.57,1.41-.22,2.66-.15,3.64-.63,1.4-.69.14-1.73-.1-2.54-1.11-3.79-1.11-7.53.1-11.29.23-.7.4-1.98.08-2.19-.81-.53-1.92-.59-3.17-.91ZM699.38,163.78v17.83c.98-.42,1.78-.77,2.67-1.15-2.32-5.25-2.24-10.31-.02-15.44-.81-.38-1.5-.7-2.64-1.24ZM749.92,166.85c-1.74,4.12-1.84,7.72.02,11.69,1.74-3.96,1.73-7.55-.02-11.69ZM810.7,179.09c1.74-4.06,1.8-7.66,0-11.63-1.78,3.98-1.75,7.57,0,11.63ZM826.22,179.03c1.79-3.96,1.76-7.58.04-11.59-1.86,3.99-1.8,7.61-.04,11.59ZM734.41,166.85c-1.78,4.1-1.86,7.74,0,11.67,1.76-3.87,1.75-7.47,0-11.67ZM718.85,178.59c1.81-4,1.82-7.63.02-11.64-1.81,3.94-1.76,7.53-.02,11.64ZM841.74,179.04c1.81-3.96,1.79-7.59.02-11.61-1.82,4-1.79,7.63-.02,11.61ZM703.4,167.07c-1.93,3.83-1.84,8.58.11,11.14,1.6-3.69,1.63-7.29-.11-11.14ZM779.62,167.29c-1.67,4.19-1.84,7.8.05,11.73,1.74-3.95,1.73-7.56-.05-11.73ZM771.86,167.39c-1.71,4.06-1.7,7.65,0,11.71,1.77-4.07,1.79-7.65,0-11.71ZM711.07,178.49c1.81-3.84,1.74-8.36-.1-11.29-1.58,3.76-1.6,7.29.1,11.29ZM802.93,167.68c-1.78,3.48-1.69,8.49.09,10.91,1.67-3.24,1.67-7.45-.09-10.91ZM818.45,167.85c-1.64,3.62-1.71,7.21.02,11.33,1.73-4.17,1.73-7.75-.02-11.33ZM787.29,178.88c2.01-3.58,1.89-8.92-.15-11.07-1.36,3.67-1.46,7.25.15,11.07ZM742,178.32c1.95-3.11,1.92-8.33-.04-11.06-1.51,3.74-1.52,7.29.04,11.06ZM833.95,167.89c-1.58,3.59-1.68,7.16.04,11.29,1.7-4.15,1.74-7.72-.04-11.29ZM726.66,167.46c-1.75,3.52-1.76,7.05-.02,11.11,1.75-4.04,1.61-7.56.02-11.11ZM680.14,178.5c1.59-4,1.66-7.56,0-11.33-1.84,3.14-1.87,7.66,0,11.33ZM784.03,90.26c.35,2.04.62,3.79.97,5.52.06.27.48.66.73.66.29,0,.76-.34.82-.61.44-1.82.79-3.66,1.19-5.57h-3.71ZM783.52,90.72c-.25-.13-.51-.27-.76-.4-.29.54-.85,1.11-.81,1.63.09,1.29.41,2.57.74,3.83.1.4.54.71.82,1.06.27-.43.8-.89.76-1.29-.15-1.62-.48-3.22-.75-4.82ZM788.32,96.88c1.63-4.78,1.65-5.8.17-6.37-1.44,3.52-1.55,5.71-.17,6.37ZM793.76,165.94c-1.46-1.56-3.29-1.99-4.24-.73-.51.67-.09,2.06-.09,3.13.22.04.45.09.67.13-.16-2.89,2.09-2.03,3.66-2.52ZM801.37,167.57c-.24-1.03-.17-2.06-.63-2.48-1.2-1.07-2.8-.66-4.07.81,1.35.48,2.69.95,4.71,1.67ZM787.42,109.94c0,.66-.01,1.05,0,1.43.01.38.05.75.08,1.13q3.37-.22,2.74-2.95c-.87.12-1.76.24-2.82.39ZM800.68,107.77v2.69c.96-.18,1.78-.33,2.68-.5-.11-.89-.21-1.63-.32-2.46-.87.1-1.57.18-2.36.27ZM798.94,103.51c-1.07.24-1.96.44-2.85.64-.06.2-.12.39-.19.59.9.77,1.79,1.54,3.04,2.61v-3.84ZM788.7,100.47c-.83.05-1.51.09-2.12.12-.66,2.15.66,2.35,2.12,2.59v-2.72ZM794.7,104.34c-1.07.1-1.91.18-2.64.25v3.4c.91-1.26,1.67-2.32,2.64-3.66ZM785.22,100.75c-2.4.02-2.45.08-1.91,2.09,1.01-.3,2.64.07,1.91-2.09Z"/>
        <path class="cls-4" d="M711.93,64.75c-1.36-1.5-1.85-.17-1.96.79-.18,1.63-.02,3.29,0,4.94.03,3.27-.08,3.42-3.32,4.27.05.88.09,1.78.14,2.66.7.58,3,.74.38,2.09-.54.28-.33,2.02-.42,2.72.89.51,1.52.87,2.15,1.23-.09.18-.17.37-.26.55-.69.16-1.39.31-1.66.37-.28,1.25-.33,2.31-.8,3.15-.18.33-1.58.44-1.91.13-.6-.59-.82-1.57-1.3-2.6-1.32.19-3.07.45-5.05.74-.14-1.65-.26-3.2-.44-5.34-.69.69-1.34,1.03-1.36,1.42-.13,2.09-.92,3.66-3.14,3.95-2.37.31-3.43-1.24-4.04-3.26-.03-.09-.2-.14-.89-.6,0,1.51-.1,2.66.03,3.79.17,1.45-.35,2.01-1.8,2.11-1.51.1-2.99.48-4.15.68-.23,1.15-.26,2.18-.67,3.02-.16.33-1.44.57-1.71.32-.68-.63-1.07-1.57-1.73-2.64-.13,0-.71.03-1.27.06q-.19-1.38,1.63-1.86c-.12-1-.25-2.02-.37-2.99-.51-.33-1-.64-1.49-.95.38-.34.83-.63,1.12-1.04.24-.33.34-.79.39-1.21.1-.77.13-1.55.2-2.45-.62-.26-1.45-.51-2.16-.94-1.18-.73-1.52-1.51-.9-3.11.66-1.71.45-3.79.45-5.7,0-.42-.73-.85-1.23-1.38.27,1.07.48,1.84.6,2.62,0,.04-1.04.36-1.09.27-.33-.6-.89-1.46-.68-1.88.35-.68,1.24-1.08,2.22-1.84-.48-2.56-1.07-5.66-1.65-8.77-.04-.2-.02-.5-.14-.57-2.48-1.42-1.48-4.45-2.91-6.37-.15-.2.55-1.41.67-1.38,2.51.6,3.97-1.77,6.44-1.79-.85-1.85-.73-3,1.05-3.78.38-.16.14-1.74.18-2.66.03-.52.02-1.05.14-1.55.02-.08.82-.11.84-.05.14.5.31,1.06.22,1.56-.23,1.33-.52,2.48,1.15,3.28.55.26.57,1.61.57,2.65,1.57.6,3.09,2.52,5.41,1.4.11-.05.8.74.93,1.21.09.34-.51.83-.48,1.23.33,4.94-2.31,9.31-2.66,14.12-.26,3.62-1.7,7.18-.41,10.9.15.44-.59,1.37-1.13,1.83-.51.44-1.3.57-1.99.85.13.9.25,1.74.39,2.78.92-.12,1.8-.29,2.69-.35,1-.06,1.38-.49,1.32-1.51-.08-1.52-.02-3.04-.02-4.79,1.76-.32,3.55-.65,5.33-.97.36-1.14.22-1.8-.97-2.4-3.31-1.69-4.42-6.03-2.52-9.25,2.19-3.72,6.8-3.76,9.07-.08,2.05,3.32.96,7.45-2.42,9.44-.53.31-.86.94-1.28,1.43.13.16.26.33.39.49,1.74-.25,3.48-.5,5.59-.8v6.03c1.34-.21,2.31-.37,3.39-.54.13-1.29.26-2.57.4-3.95-.48-.22-1.03-.43-1.54-.71-1.73-.97-1.9-1.89-.67-3.42.95-1.17,1.06-4.56.11-5.62-.31-.35-.9-.44-1.3-.62.38.87.69,1.57,1,2.27-.38.14-.75.29-1.13.43-.24-.77-.89-1.77-.62-2.26.33-.58,1.44-.72,2.44-1.15-.46-3.11-.98-6.7-1.51-10.29-.02-.13-.02-.29-.09-.38-1.65-2.13-2.36-4.56-2.36-7.23,0-.56,0-1.13,0-1.69.56.12,1.13.24,1.98.42,1.27-.48,2.91-1.11,4.72-1.8-.96-1.74-.41-2.7,1.23-3.48.42-.2.24-1.7.32-2.6.04-.51,0-1.04.12-1.53.02-.07.95-.09,1,.03.16.42.22.95.12,1.39-.3,1.31-.69,2.45.94,3.36.56.32.53,1.69.77,2.58-.2.12-.4.25-.59.37,1.49.62,2.98,1.24,4.4,1.83.62-.16,1.28-.32,1.93-.48-.08.61-.17,1.22-.25,1.84,0,.06-.06.13-.06.19-.04,6.1-3.15,11.54-3.8,17.5,0,.06.05.12.4-.21.57.46,1.14.92,1.71,1.38-.13.04-.26.08-.39.12ZM688.37,65.91c0,2.71,1.84,4.82,4.21,4.8,2.28-.02,4.09-2.09,4.11-4.7.02-2.59-1.97-4.86-4.24-4.84-2.25.02-4.07,2.14-4.07,4.74ZM703.19,52.78c.44,2.75.79,5.24,1.27,7.7.08.44.63.94,1.08,1.09.27.09,1-.41,1.08-.75.64-2.61,1.17-5.25,1.78-8.04h-5.2ZM677.53,57.29c.46,2.7.82,5.03,1.29,7.34.07.36.62.84.98.87.35.03,1-.39,1.08-.72.62-2.46,1.14-4.95,1.7-7.49h-5.04ZM709.59,70.26c-.1-1.26-.22-2.79-.34-4.32h-7.23v3.31c2.6.35,5.03.67,7.57,1.02ZM700.28,52.98c.53,3.12,1.02,5.99,1.53,9.01.82-.18,1.42-.31,2.14-.47-.51-2.99-.99-5.81-1.49-8.74-.73.07-1.29.12-2.18.2ZM674.43,58.03c.6,2.88,1.14,5.5,1.68,8.14.81-.2,1.37-.34,2.11-.52-.46-2.75-.89-5.4-1.36-8.19-.86.2-1.54.36-2.44.57ZM709.34,62.06c.48-2.43.93-4.62,1.34-6.81.22-1.16.05-2.11-1.63-2.13-.63,2.84-1.25,5.65-1.9,8.6.75.12,1.38.21,2.18.34ZM683.5,66.1c.5-2.35.87-4.5,1.43-6.6.4-1.51-.33-1.82-1.69-1.98-.6,2.78-1.17,5.45-1.76,8.17.77.16,1.28.26,2.02.41ZM685.91,82.77c-1.33.22-2.54.42-3.81.63v3.41q4.37-.23,3.81-4.04ZM697.41,79.25v-4.35c-1.4.23-2.6.43-3.78.62.17,1.84,2.25,3.83,3.78,3.72ZM702.79,80.03c-1.22.21-2.22.39-3.35.59.06,1.25.11,2.31.16,3.48,1.38-.27,2.5-.48,3.61-.7-.15-1.17-.27-2.13-.43-3.37ZM688.23,76.28v4.6c1.27-1.78,2.34-3.28,3.66-5.13-1.49.21-2.57.37-3.66.52ZM683.68,70.81c-.97.08-1.89.16-2.77.23q-.21,2.75,3.15,3.51c-.12-1.21-.23-2.35-.37-3.74ZM679.4,73.45c-.05-.9-.1-1.63-.14-2.42-1.03.05-1.81.08-2.71.12-.16.98-.31,1.89-.48,2.96,1.21-.24,2.15-.43,3.34-.67Z"/>
        <path class="cls-4" d="M798.73,80.42c1.15-.22,2.2-.45,3.26-.63,1.17-.2,2.24-.43,1.76-2.07-.06-.21.23-.7.46-.79,1.34-.51,1.27-1.46.97-2.57-.09-.32,0-.71.11-1.03.03-.08.63-.09.66-.01.13.32.26.73.17,1.04-.34,1.09-.45,1.94.8,2.65.4.22.31,1.31.54,2.51,1.19.28,2.79.66,4.63,1.1-.99,4.02-2.04,8.24-3.07,12.47-.28,1.16-.13,2.84-.85,3.37-.82.61-2.4.12-3.64.25-.81.09-2.19-.61-2.21,1.18-.43-2.97-.77-5.96-1.32-8.9-.25-1.36-1.01-2.63-1.37-3.98-.41-1.54-.63-3.14-.9-4.59ZM807.22,86.95h-3.84c.31,1.94.55,3.76.92,5.55.08.4.58.72.89,1.07.3-.38.75-.71.86-1.14.43-1.72.75-3.47,1.17-5.49ZM802.3,93.66c1.75-.33,1.86-1.35.62-5.81-.12-.42-.85-.67-1.29-1l-.42.47c.35,2.06.71,4.12,1.09,6.34ZM808.55,87.11c-.25-.01-.51-.02-.76-.03-.46,2.15-.91,4.29-1.37,6.44.15.11.3.22.45.33.42-.24,1.17-.45,1.19-.73.19-2,1.64-3.99.48-6.01Z"/>
        <path class="cls-3" d="M791.32,99.05c.93.77,1.89,1.51,2.78,2.32.25.23.51.73.42.97-.13.34-.55.71-.91.79-1.02.24-2.07.35-3.08.51-.86,1.81,1.57,5.42-3.02,4.95-.12-.52-.27-1.14-.46-1.93,2.11-.47,2.68-1.56,2.05-3.79-.37-1.33.5-3,.81-4.51.47.23.94.46,1.41.69Z"/>
        <path d="M711.93,64.75c.13-.04.26-.08.39-.12.08.29.31.68.2.86-.31.52-.76.97-1.16,1.44-.3-.38-.6-.76-.9-1.14.49-.35.98-.7,1.48-1.04Z"/>
        <path class="cls-3" d="M678.69,180.28c-2.26,1.59-4.08,1.37-5.66-.57-2.74-3.38-2.85-10.43-.04-13.8.7-.84,1.87-1.56,2.93-1.76,2.05-.38,2.8.76,2.13,2.72-1.56,4.51-1.29,8.96.63,13.41Z"/>
        <path class="cls-3" d="M809.51,181.17c-1.26.27-2.32.76-3.32.66-1.25-.13-2.07-.69-1.39-2.42,1.53-3.86,1.46-7.85.24-11.84-.22-.73-.36-2.16-.21-2.21,1.05-.33,2.19-.45,3.31-.48.37,0,.75.46,1.19.76-2.15,5.02-2.23,10.01.18,15.53Z"/>
        <path class="cls-3" d="M735.75,180.3c2.2-5.05,2.23-10.05.02-15.06,1.09-1.2,2.38-1.44,3.79-.93.86.31,1.34.81.88,1.96-1.88,4.64-1.6,9.28.28,13.88-1.57,1.62-2.72,1.69-4.97.15Z"/>
        <path class="cls-3" d="M778.32,165.65c-2.22,5.11-2.2,10.04.05,15.31-.89.34-1.75.88-2.63.95-1.84.13-2.47-.91-1.87-2.65,1.31-3.87,1.34-7.76.14-11.68-.22-.73-.38-2.15-.24-2.2,1.05-.33,2.19-.47,3.31-.5.37-.01.76.45,1.25.78Z"/>
        <path class="cls-3" d="M827.61,165.8c1.99-1.72,2.88-1.73,4.97-.07-2.12,4.93-2.18,9.93-.02,14.91-1.71,1.69-2.68,1.75-4.94.18,2.04-4.91,2.24-9.92-.01-15.02Z"/>
        <path class="cls-3" d="M717.45,165.13c-2.13,6.15-2.14,8.43-.08,15.14-1.82,1.55-2.95,1.55-4.86-.02,1.94-4.74,2.18-9.53.24-14.38-.13-.32.27-1.12.64-1.34,1.42-.84,2.76-.51,4.06.6Z"/>
        <path class="cls-3" d="M825.03,181.13c-1.17.31-2.09.77-3.01.76-1.74-.03-2.21-.91-1.63-2.54,1.39-3.93,1.41-7.87.15-11.85-.22-.71-.34-2.11-.13-2.19.97-.36,2.07-.45,3.13-.47.39,0,.78.42,1.32.74-2.15,5.04-2.26,10.1.16,15.55Z"/>
        <path class="cls-3" d="M720.24,165.22c2.08-1.58,3.18-1.56,4.96.09-2.07,4.95-2.1,9.95.03,14.9-1.87,1.61-3.01,1.62-4.97.03,2.17-4.98,2.18-10.04-.02-15.01Z"/>
        <path class="cls-3" d="M840.6,181.18c-1.3.27-2.36.75-3.36.64-1.28-.13-2.06-.75-1.38-2.44,1.54-3.86,1.48-7.84.24-11.82-.23-.73-.35-2.18-.19-2.23,1.06-.32,2.2-.43,3.31-.45.37,0,.74.47,1.19.77-2.17,5.02-2.25,10.01.2,15.52Z"/>
        <path class="cls-3" d="M733.02,165.2c-2.15,5.01-2.22,10-.04,14.94-1.72,1.66-2.84,1.7-4.95.15,1.62-3.81,2.05-7.8,1.07-11.89-.09-.38-.25-.76-.29-1.15-.08-.87-.1-1.75-.14-2.62,1.19-.03,2.37-.09,3.56-.05.25,0,.5.38.8.63Z"/>
        <path class="cls-3" d="M811.88,165.29c1.23-.28,2.23-.75,3.18-.67,1.31.12,2.3.59,1.54,2.46-1.56,3.86-1.52,7.85-.23,11.83.23.72.36,2.16.21,2.21-1.06.32-2.2.44-3.32.46-.37,0-.74-.47-1.2-.79,2.16-5.01,2.23-10.01-.18-15.5Z"/>
        <path class="cls-3" d="M781.01,180.81c2.17-5.03,2.23-10.02-.15-15.43,1.15-.3,2.18-.85,3.15-.75,1.27.12,2.3.59,1.53,2.49-1.57,3.85-1.51,7.84-.23,11.82.23.72.34,2.16.19,2.21-1.06.32-2.2.42-3.31.44-.36,0-.73-.46-1.18-.77Z"/>
        <path class="cls-3" d="M704.67,165.16c1.79-1.41,3.37-1.48,5.04,0-2.06,4.99-2.19,9.99-.04,14.97-1.59,1.65-2.76,1.72-4.93.17,2.09-4.96,2.24-10.01-.07-15.14Z"/>
        <path class="cls-3" d="M748.59,164.9c-2.23,6.47-2.23,9.43-.15,15.21-1.53,1.66-2.68,1.74-4.91.2,1.34-3.2,2.03-6.58,1.4-10.11-.21-1.16-.46-2.33-.83-3.45-.61-1.86.05-2.84,2.05-2.65.8.07,1.56.5,2.43.79Z"/>
        <path class="cls-3" d="M751.31,180.24c2.16-5.01,2.17-10.01-.1-15.21.74-.32,1.41-.77,2.14-.9,1.51-.26,2.5.27,2.22,2.03-.21,1.3-.68,2.6-.66,3.9.04,2.69.41,5.38.5,8.07.03,1.01.03,2.54-.57,2.95-1.12.79-2.52.31-3.53-.85Z"/>
        <path class="cls-3" d="M681.4,164.93c.83-.31,1.53-.71,2.28-.81,1.33-.19,2.22.29,2,1.86-.13.91-.4,1.82-.38,2.73.04,3.07.24,6.14.26,9.21,0,1.09,0,2.88-.55,3.12-.97.43-2.36-.07-3.71-.2,2.24-6.34,2.25-9.61.11-15.92Z"/>
        <path class="cls-3" d="M764.58,179.61c-2.57-3.97-2.38-9.93.32-13.08,2.64,3.01,2.52,9.52-.32,13.08Z"/>
        <path class="cls-3" d="M843.52,165.29c.48-.2,1.33-.56,2.48-1.04v17.88c-1.04-.39-1.91-.71-2.55-.94.46-2.77,1.19-5.28,1.2-7.8.02-2.52-.67-5.05-1.13-8.1Z"/>
        <path class="cls-3" d="M792.19,96.86c-.03-2.08,1.29-3.63,3.08-3.62,1.77.01,3.17,1.6,3.16,3.61,0,1.85-1.41,3.51-3.03,3.58-1.71.07-3.19-1.57-3.21-3.57Z"/>
        <path class="cls-3" d="M766.71,164.37c1.25.32,2.36.38,3.17.91.32.21.14,1.49-.08,2.19-1.21,3.77-1.21,7.51-.1,11.29.24.82,1.5,1.85.1,2.54-.98.48-2.22.41-3.64.63,2.9-8.14,2.92-8.66.55-17.57Z"/>
        <path class="cls-3" d="M699.38,163.78c1.14.53,1.83.86,2.64,1.24-2.22,5.14-2.29,10.19.02,15.44-.88.38-1.68.73-2.67,1.15v-17.83Z"/>
        <path class="cls-3" d="M749.92,166.85c1.75,4.14,1.77,7.73.02,11.69-1.86-3.97-1.76-7.57-.02-11.69Z"/>
        <path class="cls-3" d="M810.7,179.09c-1.76-4.07-1.78-7.65,0-11.63,1.81,3.98,1.75,7.58,0,11.63Z"/>
        <path class="cls-3" d="M826.22,179.03c-1.76-3.98-1.82-7.6.04-11.59,1.73,4.01,1.76,7.62-.04,11.59Z"/>
        <path class="cls-3" d="M734.41,166.85c1.75,4.2,1.75,7.8,0,11.67-1.85-3.93-1.77-7.57,0-11.67Z"/>
        <path class="cls-3" d="M718.85,178.59c-1.74-4.11-1.79-7.71.02-11.64,1.79,4.01,1.79,7.65-.02,11.64Z"/>
        <path class="cls-3" d="M841.74,179.04c-1.77-3.98-1.8-7.61.02-11.61,1.77,4.01,1.79,7.64-.02,11.61Z"/>
        <path class="cls-3" d="M703.4,167.07c1.74,3.85,1.71,7.45.11,11.14-1.95-2.56-2.04-7.31-.11-11.14Z"/>
        <path class="cls-3" d="M779.62,167.29c1.78,4.17,1.79,7.78.05,11.73-1.89-3.93-1.71-7.54-.05-11.73Z"/>
        <path class="cls-3" d="M771.86,167.39c1.79,4.05,1.77,7.64,0,11.71-1.7-4.06-1.71-7.65,0-11.71Z"/>
        <path class="cls-3" d="M711.07,178.49c-1.7-3.99-1.68-7.53-.1-11.29,1.84,2.93,1.91,7.44.1,11.29Z"/>
        <path class="cls-3" d="M802.93,167.68c1.76,3.46,1.76,7.68.09,10.91-1.78-2.42-1.87-7.43-.09-10.91Z"/>
        <path class="cls-3" d="M818.45,167.85c1.74,3.57,1.74,7.16.02,11.33-1.73-4.12-1.66-7.71-.02-11.33Z"/>
        <path class="cls-3" d="M787.29,178.88c-1.62-3.82-1.51-7.4-.15-11.07,2.04,2.15,2.16,7.49.15,11.07Z"/>
        <path class="cls-3" d="M742,178.32c-1.56-3.78-1.55-7.33-.04-11.06,1.96,2.73,1.99,7.95.04,11.06Z"/>
        <path class="cls-3" d="M833.95,167.89c1.78,3.57,1.74,7.13.04,11.29-1.73-4.13-1.62-7.7-.04-11.29Z"/>
        <path class="cls-3" d="M726.66,167.46c1.59,3.54,1.73,7.07-.02,11.11-1.74-4.06-1.72-7.58.02-11.11Z"/>
        <path class="cls-3" d="M680.14,178.5c-1.86-3.67-1.83-8.19,0-11.33,1.65,3.77,1.58,7.33,0,11.33Z"/>
        <path class="cls-3" d="M784.03,90.26h3.71c-.4,1.92-.75,3.76-1.19,5.57-.07.27-.54.6-.82.61-.25,0-.67-.39-.73-.66-.35-1.73-.62-3.48-.97-5.52Z"/>
        <path class="cls-3" d="M783.52,90.72c.26,1.61.59,3.21.75,4.82.04.4-.49.86-.76,1.29-.28-.35-.71-.66-.82-1.06-.33-1.26-.65-2.54-.74-3.83-.04-.52.52-1.08.81-1.63.25.13.51.27.76.4Z"/>
        <path class="cls-3" d="M788.32,96.88c-1.38-.66-1.27-2.85.17-6.37,1.47.57,1.45,1.59-.17,6.37Z"/>
        <path class="cls-3" d="M793.76,165.94c-1.57.5-3.82-.37-3.66,2.52-.22-.04-.45-.09-.67-.13,0-1.07-.42-2.45.09-3.13.96-1.26,2.78-.82,4.24.73Z"/>
        <path class="cls-3" d="M801.37,167.57c-2.02-.72-3.36-1.19-4.71-1.67,1.27-1.46,2.87-1.88,4.07-.81.47.42.39,1.44.63,2.48Z"/>
        <path class="cls-3" d="M787.42,109.94c1.07-.15,1.95-.27,2.82-.39q.63,2.73-2.74,2.95c-.03-.37-.07-.75-.08-1.13-.01-.39,0-.77,0-1.43Z"/>
        <path class="cls-3" d="M800.68,107.77c.79-.09,1.49-.17,2.36-.27.11.83.2,1.58.32,2.46-.9.17-1.72.32-2.68.5v-2.69Z"/>
        <path class="cls-3" d="M798.94,103.51v3.84c-1.24-1.07-2.14-1.84-3.04-2.61.06-.2.12-.39.19-.59.89-.2,1.78-.4,2.85-.64Z"/>
        <path class="cls-3" d="M788.7,100.47v2.72c-1.46-.24-2.78-.44-2.12-2.59.61-.04,1.29-.08,2.12-.12Z"/>
        <path class="cls-3" d="M794.7,104.34c-.97,1.34-1.74,2.4-2.64,3.66v-3.4c.73-.07,1.57-.15,2.64-.25Z"/>
        <path class="cls-3" d="M785.22,100.75c.73,2.16-.9,1.79-1.91,2.09-.54-2-.49-2.06,1.91-2.09Z"/>
        <path class="cls-3" d="M688.37,65.91c0-2.6,1.82-4.72,4.07-4.74,2.28-.02,4.27,2.25,4.24,4.84-.02,2.61-1.83,4.68-4.11,4.7-2.36.02-4.21-2.09-4.21-4.8Z"/>
        <path class="cls-3" d="M703.19,52.78h5.2c-.6,2.79-1.14,5.43-1.78,8.04-.08.34-.81.83-1.08.75-.44-.14-.99-.65-1.08-1.09-.48-2.46-.83-4.95-1.27-7.7Z"/>
        <path class="cls-3" d="M677.53,57.29h5.04c-.56,2.54-1.08,5.03-1.7,7.49-.08.33-.73.75-1.08.72-.36-.03-.91-.51-.98-.87-.47-2.31-.83-4.64-1.29-7.34Z"/>
        <path class="cls-3" d="M709.59,70.26c-2.54-.34-4.96-.67-7.57-1.02v-3.31h7.23c.12,1.53.24,3.07.34,4.32Z"/>
        <path class="cls-3" d="M700.28,52.98c.88-.08,1.45-.13,2.18-.2.5,2.92.98,5.75,1.49,8.74-.71.16-1.32.29-2.14.47-.51-3.02-1-5.89-1.53-9.01Z"/>
        <path class="cls-3" d="M674.43,58.03c.9-.21,1.57-.37,2.44-.57.46,2.79.9,5.43,1.36,8.19-.74.18-1.3.32-2.11.52-.54-2.63-1.09-5.26-1.68-8.14Z"/>
        <path class="cls-3" d="M709.34,62.06c-.81-.13-1.43-.22-2.18-.34.65-2.95,1.27-5.76,1.9-8.6,1.68.02,1.85.97,1.63,2.13-.41,2.2-.86,4.38-1.34,6.81Z"/>
        <path class="cls-3" d="M683.5,66.1c-.74-.15-1.24-.25-2.02-.41.58-2.72,1.16-5.39,1.76-8.17,1.36.16,2.1.47,1.69,1.98-.56,2.1-.93,4.25-1.43,6.6Z"/>
        <path class="cls-3" d="M685.91,82.77q.56,3.8-3.81,4.04v-3.41c1.26-.21,2.47-.41,3.81-.63Z"/>
        <path class="cls-3" d="M697.41,79.25c-1.53.11-3.61-1.88-3.78-3.72,1.18-.2,2.38-.39,3.78-.62v4.35Z"/>
        <path class="cls-3" d="M702.79,80.03c.16,1.24.28,2.2.43,3.37-1.11.22-2.24.43-3.61.7-.05-1.17-.1-2.24-.16-3.48,1.13-.2,2.13-.37,3.35-.59Z"/>
        <path class="cls-3" d="M688.23,76.28c1.09-.16,2.17-.31,3.66-.52-1.32,1.85-2.39,3.35-3.66,5.13v-4.6Z"/>
        <path class="cls-3" d="M683.68,70.81c.14,1.39.25,2.53.37,3.74q-3.35-.76-3.15-3.51c.88-.07,1.8-.15,2.77-.23Z"/>
        <path class="cls-3" d="M679.4,73.45c-1.19.24-2.13.42-3.34.67.17-1.07.32-1.98.48-2.96.91-.04,1.68-.07,2.71-.12.05.79.09,1.52.14,2.42Z"/>
        <path class="cls-3" d="M807.22,86.95c-.42,2.02-.74,3.77-1.17,5.49-.11.42-.56.76-.86,1.14-.31-.36-.81-.67-.89-1.07-.36-1.79-.61-3.61-.92-5.55h3.84Z"/>
        <path class="cls-3" d="M802.3,93.66c-.38-2.22-.73-4.28-1.09-6.34l.42-.47c.44.33,1.17.58,1.29,1,1.24,4.46,1.13,5.49-.62,5.81Z"/>
        <path class="cls-3" d="M808.55,87.11c1.16,2.02-.29,4.01-.48,6.01-.03.28-.78.49-1.19.73-.15-.11-.3-.22-.45-.33.46-2.15.91-4.29,1.37-6.44.25.01.51.02.76.03Z"/>
      </g>
      <text class="cls-2" transform="translate(681.29 341.81)"><tspan x="0" y="0">2026</tspan></text>
      <polygon class="cls-1" points="28.33 141.52 544.98 141.52 544.98 56.25 720.64 201.69 543.12 356.69 543.12 279.73 28.33 279.73 28.33 141.52"/>
      <path class="cls-4" d="M0,208.82c2.14-.44,4.28-.88,6.64-1.36v-11.04c.9-.43,2.02-.96,3.04-1.44,0-5.14-.33-10.23.09-15.27.41-4.93,1.94-9.76,2.29-14.69.17-2.47-1.6-5.07.45-7.5.51-.6,1.16-1.12,1.51-1.8.81-1.56,2.01-3.16,2.12-4.81.53-8.13.42-16.31,1.21-24.41.57-5.83,2.26-11.54,3.33-17.33.73-3.95,1.65-7.93,1.75-11.92.07-3.15-.98-6.34-1.58-9.8.42-.3,1.3-.94,2.31-1.67.83.53,1.86,1.19,3.16,2.03-4.94,6.44-1.3,13.25-.35,19.89,1.66,11.58,5.42,22.84,4.59,34.8-.23,3.24.53,6.73,1.62,9.82.86,2.46,2.97,4.48,4.42,6.76.43.67.86,1.67.68,2.36-1.53,6.05-.89,11.7,1.34,17.61,1.25,3.33.44,7.47.36,11.24-.06,2.79,0,5.29,3.84,5.32v10.97c.44.31.63.55.84.58,6.31.73,7.65,3.16,6.06,11.26-.32,1.64-.89,3.23-1.44,5.19h5.87c-.22-4.81-.43-9.58-.66-14.64,6.95-2.3,14.54-3.99,21.37-7.27,10.71-5.15,21.67-2.82,32.61-2.74,1.69.01,3.39.13,5.05.41,4.24.72,6.99-.71,9.72-4.29,1.73-2.27,5.73-2.77,8.66-4.17,1.31-.62,2.53-1.45,3.71-2.3.61-.45.92-1.45,1.56-1.7,5.22-2.05,5.18-6.44,5.1-10.93-.06-3.63-.01-7.26-.01-10.89.53-.01,1.06-.02,1.59-.03,0,4.8.11,9.6-.04,14.39-.09,3.02.72,5.25,3.6,6.65.98.48,1.61,1.65,2.49,2.4,1.16.98,2.32,2.01,3.63,2.75,1.88,1.06,4.75,1.36,5.68,2.9,2.9,4.8,6.79,6.86,12.81,5.89-.37,1.65-.62,2.75-.98,4.37,3.41.41,7.23,1.33,11.03,1.24,6.77-.16,12.27,3.58,18.4,5.33,5.48,1.57,10.82,3.65,16.15,5.68,1.68.64,3.13,1.86,5.26,3.17.35-5.77.67-11.17,1.01-16.57.04-.6.02-1.58.34-1.74,3.36-1.67,4.48-4.51,4.76-8.19.27.57.63,1.13.79,1.73.33,1.22.14,3.16.89,3.61,4.02,2.4,2.49,6.11,2.72,9.47.26,3.69.52,7.42,1.36,10.99.27,1.15,2.39,1.86,4.56,3.42,0-3.41-.18-5.48.03-7.51.69-6.59,1.63-13.16,2.25-19.75.3-3.22.08-6.49.15-9.74.02-.98-.11-2.54.41-2.85,5.18-3.05,3.06-8.49,4.47-12.35,1.11,3.92-.35,9.24,4.61,12.24.37.22.51,1.22.39,1.78-1.67,7.78,1.01,15.2,1.72,22.79.43,4.63.08,9.33.08,13.78,3.34,1.48,6.28,2.79,9.66,4.29.25-1.74.47-2.6.48-3.46.02-3.52-.14-6.64,2.66-9.9,2.06-2.41,1.71-6.89,2.3-9.81,1.67,3.6-.58,9.25,4.39,12.53.51.33.34,1.85.31,2.81-.07,2.18-.25,4.35-.38,6.49,3.37.49,3.43.5,4.24-4.42.38-2.28.5-4.61,1.27-6.84.68,2.54,1.23,5.12,2.1,7.59.37,1.06,1.3,2.04,2.21,2.76,1.56,1.23,2.04,2.23.91,4.23-1.3,2.29-1.95,4.72,1.75,6.17,1.05.41,1.77,2.98,1.77,4.56,0,4.53.14,8.76,6.54,10.14,1.27-1.21,2.85-3.34,4.96-4.58,2.09-1.22,4.71-1.54,7.76-2.46,2.78-5.49,8.72-2.94,13.55-2.95,3.3-.01,7.09-1.1,10.24,2.03.79.78,3.99-.87,6.86-1.6.17-2.9.3-6.14.59-9.36.05-.57.72-1.09,1.1-1.63.44.59,1.17,1.13,1.28,1.78.7,3.99,1.22,8.01,1.9,12,.09.52.66,1.23,1.14,1.36,3.3.86,6.63,1.59,10.04,2.38,2-4.74,3.95-9.38,6.14-14.58,1.71,7.08,7.01,12.52,6.22,20.07-.12,1.16.76,2.44,1.19,3.66,1.93,5.4,3.88,10.81,6.12,17.05h3.75v2.34c-.38,1.45-1.02,2.89-1.08,4.36-.16,3.45-.05,6.92-.05,10.47-1.24.16-2,.32-2.76.34-9.31.15-18.64-.02-27.94.45-31.54,1.6-63.07,3.32-94.59,5.23-12.66.77-25.27,2.26-37.91,3.26-9.32.73-18.67,1.05-27.99,1.81-40.65,3.32-81.3,6.73-121.94,10.13-3.55.3-7.08.75-10.8,1.15.81,2.31,1.44,4.11,2.1,5.99-.93.49-1.58,1.09-2.29,1.17-6.31.69-12.63,1.72-18.95,1.8-8.55.1-17.12-.49-25.67-.92-2.7-.14-3.83-1.41-2.79-4.4.83-2.39,1.28-5.03,1.29-7.56.09-24.83.2-49.66-.09-74.49C2.95,228.13,1.05,223.94,0,219.74c0-3.64,0-7.28,0-10.92ZM21.91,236.39c0,.51-.17,1.11.03,1.53.42.86,1.04,1.63,1.58,2.44.52-.81,1.29-1.57,1.5-2.46.26-1.09.29-2.37-.02-3.44-.25-.88-1.13-1.59-1.73-2.38-.46.79-1.02,1.54-1.33,2.39-.2.57-.04,1.27-.04,1.92ZM9.49,240.5c-.25-2.76-.47-5.16-.68-7.56-.36.03-.72.06-1.08.1-1.4,4.18-1.09,6.18,1.76,7.47ZM41.25,232c-2.75,3.86-2.5,7.08,0,8.15v-8.15ZM22.37,206.65c.51.06,1.03.12,1.54.18,1.5-2.05,1.29-4.12.06-6.21-.44-.02-.87-.03-1.31-.05-.1,2.03-.19,4.05-.29,6.08Z"/>
      <polygon class="cls-4" points="23.67 68.55 25.99 73.25 31.17 74 27.42 77.65 28.3 82.81 23.67 80.37 19.04 82.81 19.92 77.65 16.18 74 21.35 73.25 23.67 68.55"/>
      <path class="cls-4" d="M144.62,165.58s-2.44.14,4.88.86c7.32.72,10.34-.86,10.34-.86l-1.87,5.03-12.78,1.01-.57-6.03Z"/>
    </g>
  </g>
</svg>