<svg width="960" height="324" viewBox="0 0 960 324" fill="none" xmlns="http://www.w3.org/2000/svg">
<g stroke="#646363"  stroke-width="1" stroke-miterlimit="10">
<path d="M480.034 57.9026L356.54 57.8586L347.152 48.4706"/>
<path d="M346.381 50.532H480.034"/>
<path d="M359.492 61.5879V85.2732"/>
<path d="M359.492 50.532V41.9213"/>
<path d="M357.387 44.2161H413.171V35.6041"/>
<path d="M411.064 37.8999H480.032"/>
<path d="M484.693 85.2732H344.25"/>
<path d="M614.786 112.119H345.023"/>
<path d="M345.023 83.0988L353.585 91.6602"/>
<path d="M346.102 109.977L353.118 116.993"/>
<path d="M483.328 228.453H340.426"/>
<path d="M341.504 226.311L350.619 235.425H479.884"/>
<path d="M482.166 228.453H619.259"/>
<path d="M618.179 226.311L609.066 235.425H479.801"/>
<path d="M356.539 61.5881H480.946"/>
<path d="M356.539 57.9028V63.8948"/>
<path d="M356.539 90.0228V112.119"/>
<path d="M351.408 89.4839H480.034"/>
<path d="M364.229 63.8945V85.2732H369.627V63.8945"/>
<path d="M409.473 63.8945V85.2732H414.87V63.8945"/>
<path d="M454.713 63.8945V85.2732H460.112V63.8945"/>
<path d="M499.955 63.8945V85.2732H505.354V63.8945"/>
<path d="M545.195 63.8945V85.2732H550.594V63.8945"/>
<path d="M590.439 63.8945V85.2732H595.837V63.8945"/>
<path d="M480.033 -9.53972e-05V37.8999"/>
<path d="M364.229 89.4839V93.8933"/>
<path d="M370.49 89.4839V93.8933"/>
<path d="M376.75 89.4839V93.8933"/>
<path d="M383.008 89.4839V93.8933"/>
<path d="M389.268 89.4839V93.8933"/>
<path d="M395.527 89.4839V93.8933"/>
<path d="M401.787 89.4839V93.8933"/>
<path d="M408.049 89.4839V93.8933"/>
<path d="M414.307 89.4839V93.8933"/>
<path d="M420.566 89.4839V93.8933"/>
<path d="M426.826 89.4839V93.8933"/>
<path d="M433.086 89.4839V93.8933"/>
<path d="M439.346 89.4839V93.8933"/>
<path d="M445.605 89.4839V93.8933"/>
<path d="M451.863 89.4839V93.8933"/>
<path d="M458.123 89.4839V93.8933"/>
<path d="M464.385 89.4839V93.8933"/>
<path d="M470.645 89.4839V93.8933"/>
<path d="M476.902 89.4839V93.8933"/>
<path d="M483.162 89.4839V93.8933"/>
<path d="M489.422 89.4839V93.8933"/>
<path d="M495.682 89.4839V93.8933"/>
<path d="M501.943 89.4839V93.8933"/>
<path d="M508.201 89.4839V93.8933"/>
<path d="M514.461 89.4839V93.8933"/>
<path d="M520.721 89.4839V93.8933"/>
<path d="M526.98 89.4839V93.8933"/>
<path d="M533.24 89.4839V93.8933"/>
<path d="M539.5 89.4839V93.8933"/>
<path d="M545.758 89.4839V93.8933"/>
<path d="M552.018 89.4839V93.8933"/>
<path d="M558.279 89.4839V93.8933"/>
<path d="M564.539 89.4839V93.8933"/>
<path d="M570.797 89.4839V93.8933"/>
<path d="M577.057 89.4839V93.8933"/>
<path d="M583.316 89.4839V93.8933"/>
<path d="M589.578 89.4839V93.8933"/>
<path d="M595.836 89.4839V93.8933"/>
<path d="M355.545 235.337V239.747"/>
<path d="M365.49 235.337V239.747"/>
<path d="M375.436 235.337V239.747"/>
<path d="M385.381 235.337V239.747"/>
<path d="M395.324 235.337V239.747"/>
<path d="M405.27 235.337V239.747"/>
<path d="M415.215 235.337V239.747"/>
<path d="M425.158 235.337V239.747"/>
<path d="M435.104 235.337V239.747"/>
<path d="M445.049 235.337V239.747"/>
<path d="M454.994 235.337V239.747"/>
<path d="M464.939 235.337V239.747"/>
<path d="M474.885 235.337V239.747"/>
<path d="M484.83 235.337V239.747"/>
<path d="M494.773 235.337V239.747"/>
<path d="M504.719 235.337V239.747"/>
<path d="M514.664 235.337V239.747"/>
<path d="M524.607 235.337V239.747"/>
<path d="M534.553 235.337V239.747"/>
<path d="M544.498 235.337V239.747"/>
<path d="M554.443 235.337V239.747"/>
<path d="M564.389 235.337V239.747"/>
<path d="M574.334 235.337V239.747"/>
<path d="M584.279 235.337V239.747"/>
<path d="M594.223 235.337V239.747"/>
<path d="M604.168 235.337V239.747"/>
<path d="M395.919 135.271C395.919 140.795 391.44 145.272 385.917 145.272C380.393 145.272 375.916 140.795 375.916 135.271C375.916 129.748 380.393 125.269 385.917 125.269C391.44 125.269 395.919 129.748 395.919 135.271Z"/>
<path d="M443.087 135.271C443.087 140.795 438.61 145.272 433.086 145.272C427.563 145.272 423.086 140.795 423.086 135.271C423.086 129.748 427.563 125.269 433.086 125.269C438.61 125.269 443.087 129.748 443.087 135.271Z"/>
<path d="M490.257 135.271C490.257 140.795 485.779 145.272 480.255 145.272C474.733 145.272 470.254 140.795 470.254 135.271C470.254 129.748 474.733 125.269 480.255 125.269C485.779 125.269 490.257 129.748 490.257 135.271Z"/>
<path d="M537.425 135.271C537.425 140.795 532.947 145.272 527.423 145.272C521.901 145.272 517.422 140.795 517.422 135.271C517.422 129.748 521.901 125.269 527.423 125.269C532.947 125.269 537.425 129.748 537.425 135.271Z"/>
<path d="M584.594 135.271C584.594 140.795 580.117 145.272 574.593 145.272C569.069 145.272 564.592 140.795 564.592 135.271C564.592 129.748 569.069 125.269 574.593 125.269C580.117 125.269 584.594 129.748 584.594 135.271Z"/>
<path d="M369.494 116.857H402.341"/>
<path d="M416.553 116.857H449.398"/>
<path d="M463.611 116.857H496.457"/>
<path d="M510.668 116.857H543.515"/>
<path d="M557.699 116.857H590.546"/>
<path d="M352.842 116.857H354.755"/>
<path d="M449.516 160.548H440.02C440.02 159.187 439.619 157.921 438.912 156.865C437.72 155.009 435.631 153.785 433.268 153.785C430.894 153.785 428.806 155.009 427.614 156.865C426.906 157.921 426.504 159.187 426.504 160.548L417.01 160.545"/>
<path d="M417.01 156.865H422.823C424.342 152.561 428.447 149.48 433.268 149.48C438.079 149.48 442.183 152.561 443.702 156.865H449.516"/>
<path d="M496.509 160.548H487.013C487.013 159.187 486.613 157.921 485.906 156.865C484.714 155.009 482.625 153.785 480.261 153.785C477.887 153.785 475.798 155.009 474.606 156.865C473.899 157.921 473.498 159.187 473.498 160.548L464.002 160.545"/>
<path d="M464.002 156.865H469.815C471.335 152.561 475.439 149.48 480.261 149.48C485.073 149.48 489.177 152.561 490.695 156.865H496.509"/>
<path d="M543.66 160.548H534.165C534.165 159.187 533.764 157.921 533.057 156.865C531.864 155.009 529.776 153.785 527.412 153.785C525.038 153.785 522.949 155.009 521.757 156.865C521.05 157.921 520.649 159.187 520.649 160.548L511.154 160.545"/>
<path d="M511.154 156.865H516.968C518.486 152.561 522.59 149.48 527.412 149.48C532.224 149.48 536.328 152.561 537.846 156.865H543.66"/>
<path d="M369.664 160.02H402.169"/>
<path d="M369.664 153.785H402.169"/>
<path d="M558.34 160.02H590.846"/>
<path d="M558.34 153.785H590.846"/>
<path d="M372.855 79.9919H406.245"/>
<path d="M418.287 79.9919H451.675"/>
<path d="M463.717 79.9919H497.106"/>
<path d="M509.148 79.9919H542.538"/>
<path d="M554.58 79.9919H587.969"/>
<path d="M372.576 181.327C372.576 173.915 378.585 167.905 385.999 167.905C393.412 167.905 399.421 173.915 399.421 181.327"/>
<path d="M372.576 272.795C372.576 265.38 378.585 259.371 385.999 259.371C393.412 259.371 399.421 265.38 399.421 272.795"/>
<path d="M376.773 181.327C376.773 176.232 380.904 172.101 385.999 172.101C391.093 172.101 395.224 176.232 395.224 181.327"/>
<path d="M370.674 183.18H378.294"/>
<path d="M393.537 183.18H401.158"/>
<path d="M395.141 185.3V215.815H376.691V185.3H395.141Z"/>
<path d="M385.918 185.3V215.815"/>
<path d="M376.691 195.465H395.141"/>
<path d="M376.607 205.651H395.058"/>
<path d="M419.635 181.327C419.635 173.915 425.644 167.905 433.057 167.905C440.471 167.905 446.48 173.915 446.48 181.327"/>
<path d="M423.832 181.327C423.832 176.232 427.963 172.101 433.057 172.101C438.152 172.101 442.283 176.232 442.283 181.327"/>
<path d="M417.732 183.18H425.352"/>
<path d="M440.596 183.18H448.217"/>
<path d="M442.201 185.3V215.815H423.75V185.3H442.201Z"/>
<path d="M432.975 185.3V215.815"/>
<path d="M423.75 195.465H442.201"/>
<path d="M423.666 205.651H442.115"/>
<path d="M466.461 181.327C466.461 173.915 472.47 167.905 479.884 167.905C487.297 167.905 493.306 173.915 493.306 181.327"/>
<path d="M470.658 181.327C470.658 176.232 474.789 172.101 479.884 172.101C484.978 172.101 489.109 176.232 489.109 181.327"/>
<path d="M464.559 183.18H472.18"/>
<path d="M487.422 183.18H495.043"/>
<path d="M489.027 185.3V215.815H470.576V185.3H489.027Z"/>
<path d="M479.801 185.3V215.815"/>
<path d="M470.576 195.465H489.027"/>
<path d="M470.494 205.651H488.945"/>
<path d="M513.668 181.327C513.668 173.915 519.677 167.905 527.091 167.905C534.503 167.905 540.513 173.915 540.513 181.327"/>
<path d="M517.865 181.327C517.865 176.232 521.996 172.101 527.091 172.101C532.185 172.101 536.316 176.232 536.316 181.327"/>
<path d="M511.768 183.18H519.388"/>
<path d="M534.629 183.18H542.25"/>
<path d="M536.234 185.3V215.815H517.783V185.3H536.234Z"/>
<path d="M527.008 185.3V215.815"/>
<path d="M517.783 195.465H536.234"/>
<path d="M517.699 205.651H536.15"/>
<path d="M560.809 181.327C560.809 173.915 566.818 167.905 574.231 167.905C581.645 167.905 587.654 173.915 587.654 181.327"/>
<path d="M565.006 181.327C565.006 176.232 569.137 172.101 574.231 172.101C579.326 172.101 583.457 176.232 583.457 181.327"/>
<path d="M558.908 183.18H566.528"/>
<path d="M581.771 183.18H589.391"/>
<path d="M583.374 185.3V215.815H564.924V185.3H583.374Z"/>
<path d="M574.148 185.3V215.815"/>
<path d="M564.924 195.465H583.374"/>
<path d="M564.842 205.651H583.293"/>
<path d="M399.422 279.436V315.331H372.652V279.436"/>
<path d="M419.664 272.795C419.664 265.38 425.672 259.371 433.085 259.371C440.499 259.371 446.508 265.38 446.508 272.795"/>
<path d="M446.508 279.436V315.331H419.738V279.436"/>
<path d="M466.75 272.795C466.75 265.38 472.759 259.371 480.171 259.371C487.585 259.371 493.594 265.38 493.594 272.795"/>
<path d="M493.596 279.436V315.331H466.826V279.436"/>
<path d="M513.836 272.795C513.836 265.38 519.847 259.371 527.26 259.371C534.672 259.371 540.683 265.38 540.683 272.795"/>
<path d="M540.683 279.436V315.331H513.914V279.436"/>
<path d="M560.924 272.795C560.924 265.38 566.933 259.371 574.346 259.371C581.76 259.371 587.769 265.38 587.769 272.795"/>
<path d="M587.769 279.436V315.331H561V279.436"/>
<path d="M479.996 57.9026L603.489 57.8586L612.877 48.4706"/>
<path d="M613.649 50.532H479.996"/>
<path d="M600.537 61.5879V85.2732"/>
<path d="M600.537 50.532V41.9213"/>
<path d="M602.643 44.2161H546.859V35.6041"/>
<path d="M548.964 37.8999H479.996"/>
<path d="M482.125 85.2732H615.778"/>
<path d="M615.007 83.0988L606.447 91.6602"/>
<path d="M613.928 109.977L606.912 116.993"/>
<path d="M603.489 61.5881H479.082"/>
<path d="M603.49 57.9028V63.8948"/>
<path d="M603.49 90.0228V112.119"/>
<path d="M608.621 89.4839H479.996"/>
<path d="M396.865 279.261H421.98"/>
<path d="M396.201 275.276H422.769"/>
<path d="M349.365 279.261H374.48"/>
<path d="M348.701 275.276H375.269"/>
<path d="M350.545 255.284H607.948"/>
<path d="M350.615 251.225H608.718"/>
<path d="M443.885 279.261H469.001"/>
<path d="M443.221 275.276H469.786"/>
<path d="M490.943 279.261H516.058"/>
<path d="M490.279 275.276H516.846"/>
<path d="M538.002 279.261H563.117"/>
<path d="M537.338 275.276H563.905"/>
<path d="M586.375 279.261H611.491"/>
<path d="M585.711 275.276H612.279"/>
<path d="M350.619 235.425V275.276"/>
<path d="M350.619 279.383V315.5"/>
<path d="M353.824 279.261V315.5"/>
<path d="M608.719 235.24V275.091"/>
<path d="M608.719 279.197V315.313"/>
<path d="M605.514 279.076V315.313"/>
<path d="M317.119 315.336H642.947"/>
<path d="M308.959 319.021H651.106"/>
<path d="M302.643 322.705H657.423"/>
<path d="M366.598 208.447H358.176V118.963H366.598V208.447Z"/>
<path d="M355.281 114.94H369.493"/>
<path d="M356.648 118.963H368.23"/>
<path d="M356.861 211.251H367.915"/>
<path d="M369.232 228.449H355.545V214.008H369.232V228.449Z"/>
<path d="M358.039 131.069H366.927"/>
<path d="M413.585 208.447H405.164V118.963H413.585V208.447Z"/>
<path d="M402.27 114.94H416.482"/>
<path d="M403.637 118.963H415.217"/>
<path d="M403.848 211.251H414.901"/>
<path d="M416.218 228.449H402.531V214.008H416.218V228.449Z"/>
<path d="M405.027 131.069H413.915"/>
<path d="M460.573 208.447H452.15V118.963H460.573V208.447Z"/>
<path d="M449.256 114.94H463.469"/>
<path d="M450.625 118.963H462.205"/>
<path d="M450.834 211.251H461.889"/>
<path d="M463.205 228.449H449.52V214.008H463.205V228.449Z"/>
<path d="M452.014 131.069H460.903"/>
<path d="M507.56 208.447H499.139V118.963H507.56V208.447Z"/>
<path d="M496.244 114.94H510.456"/>
<path d="M497.613 118.963H509.193"/>
<path d="M497.822 211.251H508.877"/>
<path d="M510.193 228.449H496.506V214.008H510.193V228.449Z"/>
<path d="M499.002 131.069H507.891"/>
<path d="M554.548 208.447H546.127V118.963H554.548V208.447Z"/>
<path d="M543.23 114.94H557.444"/>
<path d="M544.6 118.963H556.18"/>
<path d="M544.811 211.251H555.864"/>
<path d="M557.179 228.449H543.494V214.008H557.179V228.449Z"/>
<path d="M545.99 131.069H554.88"/>
<path d="M601.536 208.447H593.113V118.963H601.536V208.447Z"/>
<path d="M590.219 114.94H604.431"/>
<path d="M591.586 118.963H603.167"/>
<path d="M591.797 211.251H602.852"/>
<path d="M604.167 228.449H590.48V214.008H604.167V228.449Z"/>
<path d="M592.977 131.069H601.866"/>
<path d="M480.172 262.663V315.336"/>
<path d="M477.502 1.55589L486.293 10.3452"/>
<path d="M477.502 5.95067L486.293 14.74"/>
<path d="M477.502 10.3452L486.293 19.136"/>
<path d="M489.71 16.5706L485.67 12.5306"/>
<path d="M489.71 20.9707L485.67 16.9293"/>
<path d="M489.71 25.3694L485.67 21.3293"/>
<path d="M119.99 104.125V108.532"/>
<path d="M126.25 104.125V108.532"/>
<path d="M132.51 104.125V108.532"/>
<path d="M138.77 104.125V108.532"/>
<path d="M145.029 104.125V108.532"/>
<path d="M151.287 104.125V108.532"/>
<path d="M157.549 104.125V108.532"/>
<path d="M163.809 104.125V108.532"/>
<path d="M170.066 104.125V108.532"/>
<path d="M176.326 104.125V108.532"/>
<path d="M182.586 104.125V108.532"/>
<path d="M188.846 104.125V108.532"/>
<path d="M195.107 104.125V108.532"/>
<path d="M201.365 104.125V108.532"/>
<path d="M207.625 104.125V108.532"/>
<path d="M213.885 104.125V108.532"/>
<path d="M220.145 104.125V108.532"/>
<path d="M226.404 104.125V108.532"/>
<path d="M232.664 104.125V108.532"/>
<path d="M238.922 104.125V108.532"/>
<path d="M245.182 104.125V108.532"/>
<path d="M251.443 104.125V108.532"/>
<path d="M257.703 104.125V108.532"/>
<path d="M263.961 104.125V108.532"/>
<path d="M270.221 104.125V108.532"/>
<path d="M276.48 104.125V108.532"/>
<path d="M282.742 104.125V108.532"/>
<path d="M289.002 104.125V108.532"/>
<path d="M295.26 104.125V108.532"/>
<path d="M301.52 104.125V108.532"/>
<path d="M307.779 104.125V108.532"/>
<path d="M314.039 104.125V108.532"/>
<path d="M320.299 104.125V108.532"/>
<path d="M326.557 104.125V108.532"/>
<path d="M332.816 104.125V108.532"/>
<path d="M339.078 104.125V108.532"/>
<path d="M345.338 104.125V108.532"/>
<path d="M351.598 104.125V108.532"/>
<path d="M1.55078 104.125V108.532"/>
<path d="M7.80859 104.125V108.532"/>
<path d="M14.0684 104.125V108.532"/>
<path d="M20.3301 104.125V108.532"/>
<path d="M26.5898 104.125V108.532"/>
<path d="M32.8496 104.125V108.532"/>
<path d="M39.1074 104.125V108.532"/>
<path d="M45.3672 104.125V108.532"/>
<path d="M51.6289 104.125V108.532"/>
<path d="M57.8887 104.125V108.532"/>
<path d="M64.1465 104.125V108.532"/>
<path d="M70.4062 104.125V108.532"/>
<path d="M76.666 104.125V108.532"/>
<path d="M82.9258 104.125V108.532"/>
<path d="M89.1855 104.125V108.532"/>
<path d="M95.4453 104.125V108.532"/>
<path d="M101.703 104.125V108.532"/>
<path d="M107.965 104.125V108.532"/>
<path d="M114.225 104.125V108.532"/>
<path d="M0.921875 257.313H349.946"/>
<path d="M1.02148 253.255H350.992"/>
<path d="M356.335 99.8053H0.921875L1.02187 320.039H304.75"/>
<path d="M356.335 104.125H0.921875"/>
<path d="M350.544 237.397H1.55078"/>
<path d="M274.268 125.805H357.913"/>
<path d="M179.998 125.805H260.057"/>
<path d="M0.921875 121.099H358.177"/>
<path d="M344.005 182.429V223.1H325.555V182.429H344.005Z"/>
<path d="M334.779 182.208V223.1"/>
<path d="M325.555 202.751H344.005"/>
<path d="M325.555 192.585H344.005"/>
<path d="M325.473 212.936H343.922"/>
<path d="M353.297 171.811L334.832 165.495"/>
<path d="M316.955 171.811L335.419 165.495"/>
<path d="M319.289 173.416H350.354"/>
<path d="M321.139 173.416V237.477"/>
<path d="M348.338 173.416V228.633"/>
<path d="M303.484 182.429V223.1H285.033V182.429H303.484Z"/>
<path d="M294.258 182.208V223.1"/>
<path d="M285.033 202.751H303.484"/>
<path d="M285.033 192.585H303.484"/>
<path d="M284.951 212.936H303.402"/>
<path d="M312.776 171.811L294.311 165.495"/>
<path d="M276.436 171.811L294.9 165.495"/>
<path d="M278.768 173.416H309.834"/>
<path d="M280.617 173.416V237.477"/>
<path d="M307.818 173.416V237.477"/>
<path d="M271.374 217.395H262.951V127.911H271.374V217.395Z"/>
<path d="M260.057 123.889H274.269"/>
<path d="M261.424 127.911H273.004"/>
<path d="M261.635 220.199H272.689"/>
<path d="M274.004 237.397H260.318V222.957H274.004V237.397Z"/>
<path d="M262.812 140.017H271.702"/>
<path d="M176.974 217.428H168.553V127.944H176.974V217.428Z"/>
<path d="M165.658 123.921H179.87"/>
<path d="M167.025 127.944H178.605"/>
<path d="M167.236 220.232H178.29"/>
<path d="M179.605 237.431H165.92V222.989H179.605V237.431Z"/>
<path d="M168.414 140.051H177.303"/>
<path d="M345.303 153.563H324.863V133.123H345.303V153.563Z"/>
<path d="M334.822 153.563V133.123"/>
<path d="M324.6 143.343H345.129"/>
<path d="M324.863 153.563V157.583"/>
<path d="M345.303 153.563V157.583"/>
<path d="M305.086 153.563H284.645V133.123H305.086V153.563Z"/>
<path d="M294.605 153.563V133.123"/>
<path d="M284.383 143.343H304.912"/>
<path d="M284.645 153.563V157.583"/>
<path d="M305.086 153.563V157.583"/>
<path d="M249.142 182.429V223.1H230.691V182.429H249.142Z"/>
<path d="M239.916 182.208V223.1"/>
<path d="M230.691 202.751H249.142"/>
<path d="M230.691 192.585H249.142"/>
<path d="M230.607 212.936H249.057"/>
<path d="M258.434 171.811L239.969 165.495"/>
<path d="M222.092 171.811L240.557 165.495"/>
<path d="M224.424 173.416H255.49"/>
<path d="M226.273 173.416V237.477"/>
<path d="M253.475 173.416V237.397"/>
<path d="M208.621 182.429V223.1H190.17V182.429H208.621Z"/>
<path d="M199.395 182.208V223.1"/>
<path d="M190.17 202.751H208.621"/>
<path d="M190.17 192.585H208.621"/>
<path d="M190.086 212.936H208.537"/>
<path d="M217.913 171.811L199.447 165.495"/>
<path d="M181.57 171.811L200.036 165.495"/>
<path d="M183.904 173.416H214.971"/>
<path d="M185.754 173.416V237.477"/>
<path d="M212.955 173.416V237.477"/>
<path d="M250.438 153.563H229.998V133.123H250.438V153.563Z"/>
<path d="M239.957 153.563V133.123"/>
<path d="M229.734 143.343H250.264"/>
<path d="M229.998 153.563V157.583"/>
<path d="M250.439 153.563V157.583"/>
<path d="M210.223 153.563H189.781V133.123H210.223V153.563Z"/>
<path d="M199.742 153.563V133.123"/>
<path d="M189.52 143.343H210.049"/>
<path d="M189.781 153.563V157.583"/>
<path d="M210.223 153.563V157.583"/>
<path d="M154.828 182.493V223.164H136.377V182.493H154.828Z"/>
<path d="M145.604 182.272V223.164"/>
<path d="M136.377 202.813H154.828"/>
<path d="M136.377 192.648H154.828"/>
<path d="M136.295 213H154.746"/>
<path d="M164.12 171.876L145.654 165.559"/>
<path d="M127.779 171.876L146.245 165.559"/>
<path d="M130.111 173.479H161.177"/>
<path d="M131.959 173.479V237.541"/>
<path d="M159.162 173.479V237.461"/>
<path d="M114.307 182.493V223.164H95.8574V182.493H114.307Z"/>
<path d="M105.082 182.272V223.164"/>
<path d="M95.8574 202.813H114.307"/>
<path d="M95.8574 192.648H114.307"/>
<path d="M95.7734 213H114.224"/>
<path d="M123.599 171.876L105.135 165.559"/>
<path d="M87.2578 171.876L105.723 165.559"/>
<path d="M89.5898 173.479H120.655"/>
<path d="M91.4395 173.479V237.541"/>
<path d="M118.641 173.479V237.541"/>
<path d="M156.126 153.627H135.686V133.187H156.126V153.627Z"/>
<path d="M145.645 153.627V133.187"/>
<path d="M135.422 143.407H155.951"/>
<path d="M135.686 153.627V157.646"/>
<path d="M156.125 153.627V157.646"/>
<path d="M115.909 153.627H95.4688V133.187H115.909V153.627Z"/>
<path d="M105.428 153.627V133.187"/>
<path d="M95.2051 143.407H115.734"/>
<path d="M95.4688 153.627V157.646"/>
<path d="M115.91 153.627V157.646"/>
<path d="M73.3315 182.493V223.164H54.8809V182.493H73.3315Z"/>
<path d="M64.1055 182.272V223.164"/>
<path d="M54.8809 202.813H73.3315"/>
<path d="M54.8809 192.648H73.3315"/>
<path d="M54.7969 213H73.2475"/>
<path d="M82.6235 171.876L64.1582 165.559"/>
<path d="M46.2812 171.876L64.7466 165.559"/>
<path d="M48.6152 173.479H79.6806"/>
<path d="M50.4648 173.479V237.541"/>
<path d="M77.666 173.479V237.461"/>
<path d="M32.8087 182.493V223.164H14.3594V182.493H32.8087Z"/>
<path d="M23.5859 182.272V223.164"/>
<path d="M14.3594 202.813H32.8087"/>
<path d="M14.3594 192.648H32.8087"/>
<path d="M14.2773 213H32.7267"/>
<path d="M42.1007 171.876L23.6367 165.559"/>
<path d="M5.76172 171.876L24.2257 165.559"/>
<path d="M8.09375 173.479H39.1604"/>
<path d="M9.94336 173.479V237.541"/>
<path d="M37.1445 173.479V237.541"/>
<path d="M74.6275 153.627H54.1875V133.187H74.6275V153.627Z"/>
<path d="M64.1465 153.627V133.187"/>
<path d="M53.9238 143.407H74.4532"/>
<path d="M54.1875 153.627V157.646"/>
<path d="M74.6289 153.627V157.646"/>
<path d="M34.414 153.627H13.9727V133.187H34.414V153.627Z"/>
<path d="M23.9297 153.627V133.187"/>
<path d="M13.707 143.407H34.2364"/>
<path d="M13.9727 153.627V157.646"/>
<path d="M34.4141 153.627V157.646"/>
<path d="M343.979 268.395V309.065H325.529V268.395H343.979Z"/>
<path d="M334.754 268.173V309.065"/>
<path d="M325.529 288.713H343.979"/>
<path d="M325.529 278.549H343.979"/>
<path d="M325.445 298.9H343.896"/>
<path d="M329.502 262.137L331.486 268.173"/>
<path d="M325.414 262.137L327.397 268.173"/>
<path d="M339.891 262.137L337.908 268.173"/>
<path d="M343.979 262.137L341.996 268.173"/>
<path d="M302.978 268.395V309.065H284.527V268.395H302.978Z"/>
<path d="M293.752 268.173V309.065"/>
<path d="M284.527 288.713H302.978"/>
<path d="M284.527 278.549H302.978"/>
<path d="M284.443 298.9H302.893"/>
<path d="M288.502 262.137L290.485 268.173"/>
<path d="M284.414 262.137L286.397 268.173"/>
<path d="M298.888 262.137L296.904 268.173"/>
<path d="M302.977 262.137L300.994 268.173"/>
<path d="M249.115 268.395V309.065H230.664V268.395H249.115Z"/>
<path d="M239.889 268.173V309.065"/>
<path d="M230.664 288.713H249.115"/>
<path d="M230.664 278.549H249.115"/>
<path d="M230.582 298.9H249.033"/>
<path d="M234.641 262.137L236.623 268.173"/>
<path d="M230.551 262.137L232.533 268.173"/>
<path d="M245.028 262.137L243.045 268.173"/>
<path d="M249.115 262.137L247.133 268.173"/>
<path d="M208.718 268.395V309.065H190.268V268.395H208.718Z"/>
<path d="M199.494 268.173V309.065"/>
<path d="M190.268 288.713H208.718"/>
<path d="M190.268 278.549H208.718"/>
<path d="M190.186 298.9H208.636"/>
<path d="M194.244 262.137L196.227 268.173"/>
<path d="M190.154 262.137L192.138 268.173"/>
<path d="M204.631 262.137L202.648 268.173"/>
<path d="M208.719 262.137L206.736 268.173"/>
<path d="M155.061 268.395V309.065H136.611V268.395H155.061Z"/>
<path d="M145.836 268.173V309.065"/>
<path d="M136.611 288.713H155.061"/>
<path d="M136.611 278.549H155.061"/>
<path d="M136.527 298.9H154.978"/>
<path d="M140.586 262.137L142.57 268.173"/>
<path d="M136.498 262.137L138.479 268.173"/>
<path d="M150.973 262.137L148.99 268.173"/>
<path d="M155.061 262.137L153.078 268.173"/>
<path d="M114.667 268.395V309.065H96.2168V268.395H114.667Z"/>
<path d="M105.441 268.173V309.065"/>
<path d="M96.2168 288.713H114.667"/>
<path d="M96.2168 278.549H114.667"/>
<path d="M96.1328 298.9H114.583"/>
<path d="M100.191 262.137L102.174 268.173"/>
<path d="M96.1016 262.137L98.0855 268.173"/>
<path d="M110.576 262.137L108.594 268.173"/>
<path d="M114.666 262.137L112.682 268.173"/>
<path d="M73.2358 268.395V309.065H54.7852V268.395H73.2358Z"/>
<path d="M64.0098 268.173V309.065"/>
<path d="M54.7852 288.713H73.2358"/>
<path d="M54.7852 278.549H73.2358"/>
<path d="M54.7031 298.9H73.1538"/>
<path d="M58.7617 262.137L60.7444 268.173"/>
<path d="M54.6719 262.137L56.6545 268.173"/>
<path d="M69.1487 262.137L67.166 268.173"/>
<path d="M73.2366 262.137L71.2539 268.173"/>
<path d="M32.84 268.395V309.065H14.3906V268.395H32.84Z"/>
<path d="M23.6152 268.173V309.065"/>
<path d="M14.3906 288.713H32.84"/>
<path d="M14.3906 278.549H32.84"/>
<path d="M14.3066 298.9H32.7573"/>
<path d="M18.3633 262.137L20.3473 268.173"/>
<path d="M14.2773 262.137L16.2587 268.173"/>
<path d="M28.7522 262.137L26.7695 268.173"/>
<path d="M32.8401 262.137L30.8574 268.173"/>
<path d="M303.402 253.333H284.951V244.503H303.402V253.333Z"/>
<path d="M343.977 253.333H325.527V244.503H343.977V253.333Z"/>
<path d="M208.939 253.333H190.488V244.503H208.939V253.333Z"/>
<path d="M249.515 253.333H231.064V244.503H249.515V253.333Z"/>
<path d="M115.187 253.333H96.7363V244.503H115.187V253.333Z"/>
<path d="M155.763 253.333H137.312V244.503H155.763V253.333Z"/>
<path d="M32.84 253.333H14.3906V244.503H32.84V253.333Z"/>
<path d="M73.4174 253.333H54.9668V244.503H73.4174V253.333Z"/>
<path d="M839.723 104.125V108.532"/>
<path d="M833.463 104.125V108.532"/>
<path d="M827.203 104.125V108.532"/>
<path d="M820.943 104.125V108.532"/>
<path d="M814.684 104.125V108.532"/>
<path d="M808.424 104.125V108.532"/>
<path d="M802.164 104.125V108.532"/>
<path d="M795.904 104.125V108.532"/>
<path d="M789.645 104.125V108.532"/>
<path d="M783.385 104.125V108.532"/>
<path d="M777.125 104.125V108.532"/>
<path d="M770.865 104.125V108.532"/>
<path d="M764.607 104.125V108.532"/>
<path d="M758.346 104.125V108.532"/>
<path d="M752.086 104.125V108.532"/>
<path d="M745.828 104.125V108.532"/>
<path d="M739.568 104.125V108.532"/>
<path d="M733.309 104.125V108.532"/>
<path d="M727.049 104.125V108.532"/>
<path d="M720.789 104.125V108.532"/>
<path d="M714.529 104.125V108.532"/>
<path d="M708.27 104.125V108.532"/>
<path d="M702.01 104.125V108.532"/>
<path d="M695.75 104.125V108.532"/>
<path d="M689.49 104.125V108.532"/>
<path d="M683.23 104.125V108.532"/>
<path d="M676.973 104.125V108.532"/>
<path d="M670.713 104.125V108.532"/>
<path d="M664.451 104.125V108.532"/>
<path d="M658.193 104.125V108.532"/>
<path d="M651.934 104.125V108.532"/>
<path d="M645.674 104.125V108.532"/>
<path d="M639.414 104.125V108.532"/>
<path d="M633.154 104.125V108.532"/>
<path d="M626.895 104.125V108.532"/>
<path d="M620.635 104.125V108.532"/>
<path d="M614.375 104.125V108.532"/>
<path d="M608.115 104.125V108.532"/>
<path d="M958.162 104.125V108.532"/>
<path d="M951.9 104.125V108.532"/>
<path d="M945.643 104.125V108.532"/>
<path d="M939.383 104.125V108.532"/>
<path d="M933.123 104.125V108.532"/>
<path d="M926.863 104.125V108.532"/>
<path d="M920.604 104.125V108.532"/>
<path d="M914.344 104.125V108.532"/>
<path d="M908.086 104.125V108.532"/>
<path d="M901.826 104.125V108.532"/>
<path d="M895.564 104.125V108.532"/>
<path d="M889.305 104.125V108.532"/>
<path d="M883.047 104.125V108.532"/>
<path d="M876.787 104.125V108.532"/>
<path d="M870.527 104.125V108.532"/>
<path d="M864.268 104.125V108.532"/>
<path d="M858.006 104.125V108.532"/>
<path d="M851.748 104.125V108.532"/>
<path d="M845.488 104.125V108.532"/>
<path d="M958.792 257.313H609.768"/>
<path d="M958.691 253.255H608.721"/>
<path d="M603.379 99.8053H958.791L958.692 320.039H654.963"/>
<path d="M603.379 104.125H958.791"/>
<path d="M609.168 237.397H958.161"/>
<path d="M685.444 125.805H601.799"/>
<path d="M779.715 125.805H699.656"/>
<path d="M958.79 121.099H601.535"/>
<path d="M615.707 182.429V223.1H634.158V182.429H615.707Z"/>
<path d="M624.932 182.208V223.1"/>
<path d="M634.158 202.751H615.707"/>
<path d="M634.158 192.585H615.707"/>
<path d="M634.242 212.936H615.791"/>
<path d="M606.416 171.811L624.88 165.495"/>
<path d="M642.756 171.811L624.291 165.495"/>
<path d="M640.423 173.416H609.357"/>
<path d="M638.574 173.416V237.477"/>
<path d="M611.373 173.416V228.633"/>
<path d="M656.229 182.429V223.1H674.679V182.429H656.229Z"/>
<path d="M665.453 182.208V223.1"/>
<path d="M674.679 202.751H656.229"/>
<path d="M674.679 192.585H656.229"/>
<path d="M674.761 212.936H656.311"/>
<path d="M646.936 171.811L665.401 165.495"/>
<path d="M683.278 171.811L664.812 165.495"/>
<path d="M680.944 173.416H649.879"/>
<path d="M679.094 173.416V237.477"/>
<path d="M651.893 173.416V237.477"/>
<path d="M688.338 217.395H696.761V127.911H688.338V217.395Z"/>
<path d="M699.655 123.889H685.443"/>
<path d="M698.287 127.911H686.707"/>
<path d="M698.077 220.199H687.023"/>
<path d="M685.707 237.397H699.392V222.957H685.707V237.397Z"/>
<path d="M696.899 140.017H688.01"/>
<path d="M782.738 217.428H791.16V127.944H782.738V217.428Z"/>
<path d="M794.055 123.921H779.842"/>
<path d="M792.687 127.944H781.107"/>
<path d="M792.475 220.232H781.422"/>
<path d="M780.107 237.431H793.793V222.989H780.107V237.431Z"/>
<path d="M791.298 140.051H782.408"/>
<path d="M614.41 153.563H634.851V133.123H614.41V153.563Z"/>
<path d="M624.891 153.563V133.123"/>
<path d="M635.114 143.343H614.586"/>
<path d="M634.85 153.563V157.583"/>
<path d="M614.41 153.563V157.583"/>
<path d="M654.625 153.563H675.065V133.123H654.625V153.563Z"/>
<path d="M665.107 153.563V133.123"/>
<path d="M675.329 143.343H654.801"/>
<path d="M675.064 153.563V157.583"/>
<path d="M654.625 153.563V157.583"/>
<path d="M710.57 182.429V223.1H729.021V182.429H710.57Z"/>
<path d="M719.795 182.208V223.1"/>
<path d="M729.021 202.751H710.57"/>
<path d="M729.021 192.585H710.57"/>
<path d="M729.105 212.936H710.654"/>
<path d="M701.279 171.811L719.743 165.495"/>
<path d="M737.62 171.811L719.156 165.495"/>
<path d="M735.287 173.416H704.221"/>
<path d="M733.439 173.416V237.477"/>
<path d="M706.236 173.416V237.397"/>
<path d="M751.092 182.429V223.1H769.542V182.429H751.092Z"/>
<path d="M760.316 182.208V223.1"/>
<path d="M769.542 202.751H751.092"/>
<path d="M769.542 192.585H751.092"/>
<path d="M769.625 212.936H751.174"/>
<path d="M741.801 171.811L760.266 165.495"/>
<path d="M778.14 171.811L759.676 165.495"/>
<path d="M775.807 173.416H744.742"/>
<path d="M773.959 173.416V237.477"/>
<path d="M746.758 173.416V237.477"/>
<path d="M709.273 153.563H729.715V133.123H709.273V153.563Z"/>
<path d="M719.754 153.563V133.123"/>
<path d="M729.977 143.343H709.447"/>
<path d="M729.715 153.563V157.583"/>
<path d="M709.273 153.563V157.583"/>
<path d="M749.49 153.563H769.932V133.123H749.49V153.563Z"/>
<path d="M759.971 153.563V133.123"/>
<path d="M770.194 143.343H749.666"/>
<path d="M769.93 153.563V157.583"/>
<path d="M749.49 153.563V157.583"/>
<path d="M804.885 182.493V223.164H823.335V182.493H804.885Z"/>
<path d="M814.109 182.272V223.164"/>
<path d="M823.335 202.813H804.885"/>
<path d="M823.335 192.648H804.885"/>
<path d="M823.419 213H804.969"/>
<path d="M795.592 171.876L814.057 165.559"/>
<path d="M831.933 171.876L813.469 165.559"/>
<path d="M829.602 173.479H798.535"/>
<path d="M827.752 173.479V237.541"/>
<path d="M800.551 173.479V237.461"/>
<path d="M845.404 182.493V223.164H863.855V182.493H845.404Z"/>
<path d="M854.631 182.272V223.164"/>
<path d="M863.855 202.813H845.404"/>
<path d="M863.855 192.648H845.404"/>
<path d="M863.939 213H845.488"/>
<path d="M836.113 171.876L854.579 165.559"/>
<path d="M872.456 171.876L853.99 165.559"/>
<path d="M870.122 173.479H839.057"/>
<path d="M868.273 173.479V237.541"/>
<path d="M841.07 173.479V237.541"/>
<path d="M803.586 153.627H824.027V133.187H803.586V153.627Z"/>
<path d="M814.068 153.627V133.187"/>
<path d="M824.291 143.407H803.762"/>
<path d="M824.027 153.627V157.646"/>
<path d="M803.586 153.627V157.646"/>
<path d="M843.803 153.627H864.244V133.187H843.803V153.627Z"/>
<path d="M854.283 153.627V133.187"/>
<path d="M864.506 143.407H843.977"/>
<path d="M864.244 153.627V157.646"/>
<path d="M843.803 153.627V157.646"/>
<path d="M886.381 182.493V223.164H904.832V182.493H886.381Z"/>
<path d="M895.607 182.272V223.164"/>
<path d="M904.832 202.813H886.381"/>
<path d="M904.832 192.648H886.381"/>
<path d="M904.916 213H886.465"/>
<path d="M877.09 171.876L895.555 165.559"/>
<path d="M913.43 171.876L894.965 165.559"/>
<path d="M911.097 173.479H880.031"/>
<path d="M909.25 173.479V237.541"/>
<path d="M882.049 173.479V237.461"/>
<path d="M926.902 182.493V223.164H945.353V182.493H926.902Z"/>
<path d="M936.127 182.272V223.164"/>
<path d="M945.353 202.813H926.902"/>
<path d="M945.353 192.648H926.902"/>
<path d="M945.435 213H926.984"/>
<path d="M917.611 171.876L936.077 165.559"/>
<path d="M953.95 171.876L935.486 165.559"/>
<path d="M951.618 173.479H920.553"/>
<path d="M949.77 173.479V237.541"/>
<path d="M922.568 173.479V237.541"/>
<path d="M885.084 153.627H905.525V133.187H885.084V153.627Z"/>
<path d="M895.564 153.627V133.187"/>
<path d="M905.787 143.407H885.258"/>
<path d="M905.525 153.627V157.646"/>
<path d="M885.084 153.627V157.646"/>
<path d="M925.301 153.627H945.741V133.187H925.301V153.627Z"/>
<path d="M935.779 153.627V133.187"/>
<path d="M946.004 143.407H925.475"/>
<path d="M945.74 153.627V157.646"/>
<path d="M925.301 153.627V157.646"/>
<path d="M615.732 268.395V309.065H634.183V268.395H615.732Z"/>
<path d="M624.959 268.173V309.065"/>
<path d="M634.183 288.713H615.732"/>
<path d="M634.183 278.549H615.732"/>
<path d="M634.267 298.9H615.816"/>
<path d="M630.209 262.137L628.225 268.173"/>
<path d="M634.297 262.137L632.314 268.173"/>
<path d="M619.822 262.137L621.806 268.173"/>
<path d="M615.732 262.137L617.715 268.173"/>
<path d="M656.734 268.395V309.065H675.185V268.395H656.734Z"/>
<path d="M665.959 268.173V309.065"/>
<path d="M675.185 288.713H656.734"/>
<path d="M675.185 278.549H656.734"/>
<path d="M675.269 298.9H656.818"/>
<path d="M671.211 262.137L669.229 268.173"/>
<path d="M675.3 262.137L673.316 268.173"/>
<path d="M660.824 262.137L662.807 268.173"/>
<path d="M656.734 262.137L658.718 268.173"/>
<path d="M710.598 268.395V309.065H729.048V268.395H710.598Z"/>
<path d="M719.822 268.173V309.065"/>
<path d="M729.048 288.713H710.598"/>
<path d="M729.048 278.549H710.598"/>
<path d="M729.13 298.9H710.68"/>
<path d="M725.074 262.137L723.09 268.173"/>
<path d="M729.16 262.137L727.178 268.173"/>
<path d="M714.686 262.137L716.668 268.173"/>
<path d="M710.598 262.137L712.58 268.173"/>
<path d="M750.994 268.395V309.065H769.445V268.395H750.994Z"/>
<path d="M760.219 268.173V309.065"/>
<path d="M769.445 288.713H750.994"/>
<path d="M769.445 278.549H750.994"/>
<path d="M769.527 298.9H751.076"/>
<path d="M765.468 262.137L763.484 268.173"/>
<path d="M769.557 262.137L767.574 268.173"/>
<path d="M755.082 262.137L757.063 268.173"/>
<path d="M750.994 262.137L752.977 268.173"/>
<path d="M804.65 268.395V309.065H823.101V268.395H804.65Z"/>
<path d="M813.875 268.173V309.065"/>
<path d="M823.101 288.713H804.65"/>
<path d="M823.101 278.549H804.65"/>
<path d="M823.183 298.9H804.732"/>
<path d="M819.125 262.137L817.143 268.173"/>
<path d="M823.215 262.137L821.232 268.173"/>
<path d="M808.738 262.137L810.722 268.173"/>
<path d="M804.65 262.137L806.633 268.173"/>
<path d="M845.047 268.395V309.065H863.498V268.395H845.047Z"/>
<path d="M854.271 268.173V309.065"/>
<path d="M863.498 288.713H845.047"/>
<path d="M863.498 278.549H845.047"/>
<path d="M863.58 298.9H845.129"/>
<path d="M859.523 262.137L857.539 268.173"/>
<path d="M863.61 262.137L861.627 268.173"/>
<path d="M849.135 262.137L851.117 268.173"/>
<path d="M845.047 262.137L847.03 268.173"/>
<path d="M886.477 268.395V309.065H904.927V268.395H886.477Z"/>
<path d="M895.701 268.173V309.065"/>
<path d="M904.927 288.713H886.477"/>
<path d="M904.927 278.549H886.477"/>
<path d="M905.009 298.9H886.559"/>
<path d="M900.95 262.137L898.969 268.173"/>
<path d="M905.039 262.137L903.057 268.173"/>
<path d="M890.564 262.137L892.548 268.173"/>
<path d="M886.477 262.137L888.459 268.173"/>
<path d="M926.871 268.395V309.065H945.322V268.395H926.871Z"/>
<path d="M936.098 268.173V309.065"/>
<path d="M945.322 288.713H926.871"/>
<path d="M945.322 278.549H926.871"/>
<path d="M945.406 298.9H926.955"/>
<path d="M941.346 262.137L939.363 268.173"/>
<path d="M945.436 262.137L943.453 268.173"/>
<path d="M930.959 262.137L932.943 268.173"/>
<path d="M926.871 262.137L928.854 268.173"/>
<path d="M656.311 253.333H674.761V244.503H656.311V253.333Z"/>
<path d="M615.734 253.333H634.185V244.503H615.734V253.333Z"/>
<path d="M750.773 253.333H769.224V244.503H750.773V253.333Z"/>
<path d="M710.195 253.333H728.646V244.503H710.195V253.333Z"/>
<path d="M844.525 253.333H862.976V244.503H844.525V253.333Z"/>
<path d="M803.947 253.333H822.398V244.503H803.947V253.333Z"/>
<path d="M926.871 253.333H945.322V244.503H926.871V253.333Z"/>
<path d="M886.295 253.333H904.746V244.503H886.295V253.333Z"/>
<path d="M466.461 300.46H493.594"/>
<path d="M369.182 215.815H402.483"/>
<path d="M416.242 215.815H449.544"/>
<path d="M463.068 215.815H496.37"/>
<path d="M510.275 215.815H543.577"/>
<path d="M557.18 215.815H590.481"/>
</g>
</svg>
